<?xml version="1.0" standalone="no"?>
 <!DOCTYPE svg PUBLIC "-//W3C//DTD SVG 1.1//EN" 
 "http://www.w3.org/Graphics/SVG/1.1/DTD/svg11.dtd"> 
<svg xmlns="http://www.w3.org/2000/svg" version="1.1" 
    width="29.7002cm" height="21.0007cm" viewBox="0 0 116930 82680 ">
<title>SVG Picture created as picflasher.sch.svg date 2015/04/22 21:45:52 </title>
  <desc>Picture generated by Eeschema-SVG </desc>
<g style="fill:#000000; fill-opacity:1;stroke:#000000; stroke-opacity:1;
stroke-linecap:round; stroke-linejoin:round; "
 transform="translate(0 0) scale(1 1)">
</g>
<g style="fill:#840000; fill-opacity:0.0; 
stroke:#840000; stroke-width:100; stroke-opacity:1; 
stroke-linecap:round; stroke-linejoin:round;">
</g>
<g style="fill:#840000; fill-opacity:0.0; 
stroke:#840000; stroke-width:60; stroke-opacity:1; 
stroke-linecap:round; stroke-linejoin:round;">
<rect x="69690" y="65360" width="42520" height="12600" rx="0" />
</g>
<g style="fill:#840000; fill-opacity:0.0; 
stroke:#840000; stroke-width:100; stroke-opacity:1; 
stroke-linecap:round; stroke-linejoin:round;">
</g>
<g style="fill:#840000; fill-opacity:0.0; 
stroke:#840000; stroke-width:60; stroke-opacity:1; 
stroke-linecap:round; stroke-linejoin:round;">
<rect x="3940" y="3940" width="109050" height="74800" rx="0" />
</g>
<g style="fill:#840000; fill-opacity:0.0; 
stroke:#840000; stroke-width:100; stroke-opacity:1; 
stroke-linecap:round; stroke-linejoin:round;">
</g>
<g style="fill:#840000; fill-opacity:0.0; 
stroke:#840000; stroke-width:60; stroke-opacity:1; 
stroke-linecap:round; stroke-linejoin:round;">
<rect x="4720" y="4720" width="107490" height="73240" rx="0" />
</g>
<g style="fill:#840000; fill-opacity:0.0; 
stroke:#840000; stroke-width:100; stroke-opacity:1; 
stroke-linecap:round; stroke-linejoin:round;">
</g>
<g style="fill:#840000; fill-opacity:0.0; 
stroke:#840000; stroke-width:60; stroke-opacity:1; 
stroke-linecap:round; stroke-linejoin:round;">
<path d="M23620 4720
L23620 3940
" />
</g>
<g style="fill:#840000; fill-opacity:0.0; 
stroke:#840000; stroke-width:100; stroke-opacity:1; 
stroke-linecap:round; stroke-linejoin:round;">
</g>
<g style="fill:#840000; fill-opacity:0.0; 
stroke:#840000; stroke-width:60; stroke-opacity:1; 
stroke-linecap:round; stroke-linejoin:round;">
<path d="M43310 4720
L43310 3940
" />
</g>
<g style="fill:#840000; fill-opacity:0.0; 
stroke:#840000; stroke-width:100; stroke-opacity:1; 
stroke-linecap:round; stroke-linejoin:round;">
</g>
<g style="fill:#840000; fill-opacity:0.0; 
stroke:#840000; stroke-width:60; stroke-opacity:1; 
stroke-linecap:round; stroke-linejoin:round;">
<path d="M62990 4720
L62990 3940
" />
</g>
<g style="fill:#840000; fill-opacity:0.0; 
stroke:#840000; stroke-width:100; stroke-opacity:1; 
stroke-linecap:round; stroke-linejoin:round;">
</g>
<g style="fill:#840000; fill-opacity:0.0; 
stroke:#840000; stroke-width:60; stroke-opacity:1; 
stroke-linecap:round; stroke-linejoin:round;">
<path d="M82680 4720
L82680 3940
" />
</g>
<g style="fill:#840000; fill-opacity:0.0; 
stroke:#840000; stroke-width:100; stroke-opacity:1; 
stroke-linecap:round; stroke-linejoin:round;">
</g>
<g style="fill:#840000; fill-opacity:0.0; 
stroke:#840000; stroke-width:60; stroke-opacity:1; 
stroke-linecap:round; stroke-linejoin:round;">
<path d="M102360 4720
L102360 3940
" />
</g>
<g style="fill:#840000; fill-opacity:0.0; 
stroke:#840000; stroke-width:100; stroke-opacity:1; 
stroke-linecap:round; stroke-linejoin:round;">
</g>
<g style="fill:#840000; fill-opacity:0.0; 
stroke:#840000; stroke-width:60; stroke-opacity:1; 
stroke-linecap:round; stroke-linejoin:round;">
<path d="M14170 4560
L13880 4560
" />
<path d="M14020 4560
L14020 4050
L13970 4120
L13930 4170
L13880 4190
" />
</g>
<g style="fill:#840000; fill-opacity:0.0; 
stroke:#840000; stroke-width:100; stroke-opacity:1; 
stroke-linecap:round; stroke-linejoin:round;">
</g>
<g style="fill:#840000; fill-opacity:0.0; 
stroke:#840000; stroke-width:60; stroke-opacity:1; 
stroke-linecap:round; stroke-linejoin:round;">
<path d="M33560 4090
L33580 4070
L33630 4050
L33750 4050
L33800 4070
L33820 4090
L33850 4140
L33850 4190
L33820 4260
L33530 4560
L33850 4560
" />
</g>
<g style="fill:#840000; fill-opacity:0.0; 
stroke:#840000; stroke-width:100; stroke-opacity:1; 
stroke-linecap:round; stroke-linejoin:round;">
</g>
<g style="fill:#840000; fill-opacity:0.0; 
stroke:#840000; stroke-width:60; stroke-opacity:1; 
stroke-linecap:round; stroke-linejoin:round;">
<path d="M53220 4050
L53540 4050
L53370 4240
L53440 4240
L53490 4260
L53510 4290
L53540 4340
L53540 4460
L53510 4510
L53490 4530
L53440 4560
L53300 4560
L53250 4530
L53220 4510
" />
</g>
<g style="fill:#840000; fill-opacity:0.0; 
stroke:#840000; stroke-width:100; stroke-opacity:1; 
stroke-linecap:round; stroke-linejoin:round;">
</g>
<g style="fill:#840000; fill-opacity:0.0; 
stroke:#840000; stroke-width:60; stroke-opacity:1; 
stroke-linecap:round; stroke-linejoin:round;">
<path d="M73170 4220
L73170 4560
" />
<path d="M73050 4020
L72930 4390
L73240 4390
" />
</g>
<g style="fill:#840000; fill-opacity:0.0; 
stroke:#840000; stroke-width:100; stroke-opacity:1; 
stroke-linecap:round; stroke-linejoin:round;">
</g>
<g style="fill:#840000; fill-opacity:0.0; 
stroke:#840000; stroke-width:60; stroke-opacity:1; 
stroke-linecap:round; stroke-linejoin:round;">
<path d="M92880 4050
L92640 4050
L92620 4290
L92640 4260
L92690 4240
L92810 4240
L92860 4260
L92880 4290
L92910 4340
L92910 4460
L92880 4510
L92860 4530
L92810 4560
L92690 4560
L92640 4530
L92620 4510
" />
</g>
<g style="fill:#840000; fill-opacity:0.0; 
stroke:#840000; stroke-width:100; stroke-opacity:1; 
stroke-linecap:round; stroke-linejoin:round;">
</g>
<g style="fill:#840000; fill-opacity:0.0; 
stroke:#840000; stroke-width:60; stroke-opacity:1; 
stroke-linecap:round; stroke-linejoin:round;">
<path d="M112540 4050
L112440 4050
L112390 4070
L112370 4090
L112320 4170
L112300 4260
L112300 4460
L112320 4510
L112350 4530
L112390 4560
L112490 4560
L112540 4530
L112560 4510
L112590 4460
L112590 4340
L112560 4290
L112540 4260
L112490 4240
L112390 4240
L112350 4260
L112320 4290
L112300 4340
" />
</g>
<g style="fill:#840000; fill-opacity:0.0; 
stroke:#840000; stroke-width:100; stroke-opacity:1; 
stroke-linecap:round; stroke-linejoin:round;">
</g>
<g style="fill:#840000; fill-opacity:0.0; 
stroke:#840000; stroke-width:60; stroke-opacity:1; 
stroke-linecap:round; stroke-linejoin:round;">
<path d="M23620 77960
L23620 78740
" />
</g>
<g style="fill:#840000; fill-opacity:0.0; 
stroke:#840000; stroke-width:100; stroke-opacity:1; 
stroke-linecap:round; stroke-linejoin:round;">
</g>
<g style="fill:#840000; fill-opacity:0.0; 
stroke:#840000; stroke-width:60; stroke-opacity:1; 
stroke-linecap:round; stroke-linejoin:round;">
<path d="M43310 77960
L43310 78740
" />
</g>
<g style="fill:#840000; fill-opacity:0.0; 
stroke:#840000; stroke-width:100; stroke-opacity:1; 
stroke-linecap:round; stroke-linejoin:round;">
</g>
<g style="fill:#840000; fill-opacity:0.0; 
stroke:#840000; stroke-width:60; stroke-opacity:1; 
stroke-linecap:round; stroke-linejoin:round;">
<path d="M62990 77960
L62990 78740
" />
</g>
<g style="fill:#840000; fill-opacity:0.0; 
stroke:#840000; stroke-width:100; stroke-opacity:1; 
stroke-linecap:round; stroke-linejoin:round;">
</g>
<g style="fill:#840000; fill-opacity:0.0; 
stroke:#840000; stroke-width:60; stroke-opacity:1; 
stroke-linecap:round; stroke-linejoin:round;">
<path d="M82680 77960
L82680 78740
" />
</g>
<g style="fill:#840000; fill-opacity:0.0; 
stroke:#840000; stroke-width:100; stroke-opacity:1; 
stroke-linecap:round; stroke-linejoin:round;">
</g>
<g style="fill:#840000; fill-opacity:0.0; 
stroke:#840000; stroke-width:60; stroke-opacity:1; 
stroke-linecap:round; stroke-linejoin:round;">
<path d="M102360 77960
L102360 78740
" />
</g>
<g style="fill:#840000; fill-opacity:0.0; 
stroke:#840000; stroke-width:100; stroke-opacity:1; 
stroke-linecap:round; stroke-linejoin:round;">
</g>
<g style="fill:#840000; fill-opacity:0.0; 
stroke:#840000; stroke-width:60; stroke-opacity:1; 
stroke-linecap:round; stroke-linejoin:round;">
<path d="M14170 78580
L13880 78580
" />
<path d="M14020 78580
L14020 78070
L13970 78140
L13930 78190
L13880 78210
" />
</g>
<g style="fill:#840000; fill-opacity:0.0; 
stroke:#840000; stroke-width:100; stroke-opacity:1; 
stroke-linecap:round; stroke-linejoin:round;">
</g>
<g style="fill:#840000; fill-opacity:0.0; 
stroke:#840000; stroke-width:60; stroke-opacity:1; 
stroke-linecap:round; stroke-linejoin:round;">
<path d="M33560 78110
L33580 78090
L33630 78070
L33750 78070
L33800 78090
L33820 78110
L33850 78160
L33850 78210
L33820 78280
L33530 78580
L33850 78580
" />
</g>
<g style="fill:#840000; fill-opacity:0.0; 
stroke:#840000; stroke-width:100; stroke-opacity:1; 
stroke-linecap:round; stroke-linejoin:round;">
</g>
<g style="fill:#840000; fill-opacity:0.0; 
stroke:#840000; stroke-width:60; stroke-opacity:1; 
stroke-linecap:round; stroke-linejoin:round;">
<path d="M53220 78070
L53540 78070
L53370 78260
L53440 78260
L53490 78280
L53510 78310
L53540 78360
L53540 78480
L53510 78530
L53490 78550
L53440 78580
L53300 78580
L53250 78550
L53220 78530
" />
</g>
<g style="fill:#840000; fill-opacity:0.0; 
stroke:#840000; stroke-width:100; stroke-opacity:1; 
stroke-linecap:round; stroke-linejoin:round;">
</g>
<g style="fill:#840000; fill-opacity:0.0; 
stroke:#840000; stroke-width:60; stroke-opacity:1; 
stroke-linecap:round; stroke-linejoin:round;">
<path d="M73170 78240
L73170 78580
" />
<path d="M73050 78040
L72930 78410
L73240 78410
" />
</g>
<g style="fill:#840000; fill-opacity:0.0; 
stroke:#840000; stroke-width:100; stroke-opacity:1; 
stroke-linecap:round; stroke-linejoin:round;">
</g>
<g style="fill:#840000; fill-opacity:0.0; 
stroke:#840000; stroke-width:60; stroke-opacity:1; 
stroke-linecap:round; stroke-linejoin:round;">
<path d="M92880 78070
L92640 78070
L92620 78310
L92640 78280
L92690 78260
L92810 78260
L92860 78280
L92880 78310
L92910 78360
L92910 78480
L92880 78530
L92860 78550
L92810 78580
L92690 78580
L92640 78550
L92620 78530
" />
</g>
<g style="fill:#840000; fill-opacity:0.0; 
stroke:#840000; stroke-width:100; stroke-opacity:1; 
stroke-linecap:round; stroke-linejoin:round;">
</g>
<g style="fill:#840000; fill-opacity:0.0; 
stroke:#840000; stroke-width:60; stroke-opacity:1; 
stroke-linecap:round; stroke-linejoin:round;">
<path d="M112540 78070
L112440 78070
L112390 78090
L112370 78110
L112320 78190
L112300 78280
L112300 78480
L112320 78530
L112350 78550
L112390 78580
L112490 78580
L112540 78550
L112560 78530
L112590 78480
L112590 78360
L112560 78310
L112540 78280
L112490 78260
L112390 78260
L112350 78280
L112320 78310
L112300 78360
" />
</g>
<g style="fill:#840000; fill-opacity:0.0; 
stroke:#840000; stroke-width:100; stroke-opacity:1; 
stroke-linecap:round; stroke-linejoin:round;">
</g>
<g style="fill:#840000; fill-opacity:0.0; 
stroke:#840000; stroke-width:60; stroke-opacity:1; 
stroke-linecap:round; stroke-linejoin:round;">
<path d="M3940 23620
L4720 23620
" />
</g>
<g style="fill:#840000; fill-opacity:0.0; 
stroke:#840000; stroke-width:100; stroke-opacity:1; 
stroke-linecap:round; stroke-linejoin:round;">
</g>
<g style="fill:#840000; fill-opacity:0.0; 
stroke:#840000; stroke-width:60; stroke-opacity:1; 
stroke-linecap:round; stroke-linejoin:round;">
<path d="M3940 43310
L4720 43310
" />
</g>
<g style="fill:#840000; fill-opacity:0.0; 
stroke:#840000; stroke-width:100; stroke-opacity:1; 
stroke-linecap:round; stroke-linejoin:round;">
</g>
<g style="fill:#840000; fill-opacity:0.0; 
stroke:#840000; stroke-width:60; stroke-opacity:1; 
stroke-linecap:round; stroke-linejoin:round;">
<path d="M3940 62990
L4720 62990
" />
</g>
<g style="fill:#840000; fill-opacity:0.0; 
stroke:#840000; stroke-width:100; stroke-opacity:1; 
stroke-linecap:round; stroke-linejoin:round;">
</g>
<g style="fill:#840000; fill-opacity:0.0; 
stroke:#840000; stroke-width:60; stroke-opacity:1; 
stroke-linecap:round; stroke-linejoin:round;">
<path d="M4210 13860
L4450 13860
" />
<path d="M4160 14010
L4330 13500
L4500 14010
" />
</g>
<g style="fill:#840000; fill-opacity:0.0; 
stroke:#840000; stroke-width:100; stroke-opacity:1; 
stroke-linecap:round; stroke-linejoin:round;">
</g>
<g style="fill:#840000; fill-opacity:0.0; 
stroke:#840000; stroke-width:60; stroke-opacity:1; 
stroke-linecap:round; stroke-linejoin:round;">
<path d="M4370 33420
L4440 33440
L4470 33470
L4490 33520
L4490 33590
L4470 33640
L4440 33660
L4400 33690
L4200 33690
L4200 33180
L4370 33180
L4420 33200
L4440 33220
L4470 33270
L4470 33320
L4440 33370
L4420 33390
L4370 33420
L4200 33420
" />
</g>
<g style="fill:#840000; fill-opacity:0.0; 
stroke:#840000; stroke-width:100; stroke-opacity:1; 
stroke-linecap:round; stroke-linejoin:round;">
</g>
<g style="fill:#840000; fill-opacity:0.0; 
stroke:#840000; stroke-width:60; stroke-opacity:1; 
stroke-linecap:round; stroke-linejoin:round;">
<path d="M4490 53330
L4470 53350
L4400 53380
L4350 53380
L4270 53350
L4230 53300
L4200 53250
L4180 53160
L4180 53080
L4200 52990
L4230 52940
L4270 52890
L4350 52870
L4400 52870
L4470 52890
L4490 52910
" />
</g>
<g style="fill:#840000; fill-opacity:0.0; 
stroke:#840000; stroke-width:100; stroke-opacity:1; 
stroke-linecap:round; stroke-linejoin:round;">
</g>
<g style="fill:#840000; fill-opacity:0.0; 
stroke:#840000; stroke-width:60; stroke-opacity:1; 
stroke-linecap:round; stroke-linejoin:round;">
<path d="M4200 73060
L4200 72550
L4320 72550
L4400 72570
L4440 72620
L4470 72670
L4490 72760
L4490 72840
L4470 72930
L4440 72980
L4400 73030
L4320 73060
L4200 73060
" />
</g>
<g style="fill:#840000; fill-opacity:0.0; 
stroke:#840000; stroke-width:100; stroke-opacity:1; 
stroke-linecap:round; stroke-linejoin:round;">
</g>
<g style="fill:#840000; fill-opacity:0.0; 
stroke:#840000; stroke-width:60; stroke-opacity:1; 
stroke-linecap:round; stroke-linejoin:round;">
<path d="M112990 23620
L112210 23620
" />
</g>
<g style="fill:#840000; fill-opacity:0.0; 
stroke:#840000; stroke-width:100; stroke-opacity:1; 
stroke-linecap:round; stroke-linejoin:round;">
</g>
<g style="fill:#840000; fill-opacity:0.0; 
stroke:#840000; stroke-width:60; stroke-opacity:1; 
stroke-linecap:round; stroke-linejoin:round;">
<path d="M112990 43310
L112210 43310
" />
</g>
<g style="fill:#840000; fill-opacity:0.0; 
stroke:#840000; stroke-width:100; stroke-opacity:1; 
stroke-linecap:round; stroke-linejoin:round;">
</g>
<g style="fill:#840000; fill-opacity:0.0; 
stroke:#840000; stroke-width:60; stroke-opacity:1; 
stroke-linecap:round; stroke-linejoin:round;">
<path d="M112990 62990
L112210 62990
" />
</g>
<g style="fill:#840000; fill-opacity:0.0; 
stroke:#840000; stroke-width:100; stroke-opacity:1; 
stroke-linecap:round; stroke-linejoin:round;">
</g>
<g style="fill:#840000; fill-opacity:0.0; 
stroke:#840000; stroke-width:60; stroke-opacity:1; 
stroke-linecap:round; stroke-linejoin:round;">
<path d="M112480 13860
L112720 13860
" />
<path d="M112430 14010
L112600 13500
L112770 14010
" />
</g>
<g style="fill:#840000; fill-opacity:0.0; 
stroke:#840000; stroke-width:100; stroke-opacity:1; 
stroke-linecap:round; stroke-linejoin:round;">
</g>
<g style="fill:#840000; fill-opacity:0.0; 
stroke:#840000; stroke-width:60; stroke-opacity:1; 
stroke-linecap:round; stroke-linejoin:round;">
<path d="M112640 33420
L112710 33440
L112740 33470
L112760 33520
L112760 33590
L112740 33640
L112710 33660
L112670 33690
L112470 33690
L112470 33180
L112640 33180
L112690 33200
L112710 33220
L112740 33270
L112740 33320
L112710 33370
L112690 33390
L112640 33420
L112470 33420
" />
</g>
<g style="fill:#840000; fill-opacity:0.0; 
stroke:#840000; stroke-width:100; stroke-opacity:1; 
stroke-linecap:round; stroke-linejoin:round;">
</g>
<g style="fill:#840000; fill-opacity:0.0; 
stroke:#840000; stroke-width:60; stroke-opacity:1; 
stroke-linecap:round; stroke-linejoin:round;">
<path d="M112760 53330
L112740 53350
L112670 53380
L112620 53380
L112540 53350
L112500 53300
L112470 53250
L112450 53160
L112450 53080
L112470 52990
L112500 52940
L112540 52890
L112620 52870
L112670 52870
L112740 52890
L112760 52910
" />
</g>
<g style="fill:#840000; fill-opacity:0.0; 
stroke:#840000; stroke-width:100; stroke-opacity:1; 
stroke-linecap:round; stroke-linejoin:round;">
</g>
<g style="fill:#840000; fill-opacity:0.0; 
stroke:#840000; stroke-width:60; stroke-opacity:1; 
stroke-linecap:round; stroke-linejoin:round;">
<path d="M112470 73060
L112470 72550
L112590 72550
L112670 72570
L112710 72620
L112740 72670
L112760 72760
L112760 72840
L112740 72930
L112710 72980
L112670 73030
L112590 73060
L112470 73060
" />
</g>
<g style="fill:#840000; fill-opacity:0.0; 
stroke:#840000; stroke-width:100; stroke-opacity:1; 
stroke-linecap:round; stroke-linejoin:round;">
</g>
<g style="fill:#840000; fill-opacity:0.0; 
stroke:#840000; stroke-width:60; stroke-opacity:1; 
stroke-linecap:round; stroke-linejoin:round;">
<path d="M78880 76290
L78880 75700
L79020 75700
L79110 75730
L79160 75790
L79190 75840
L79220 75950
L79220 76040
L79190 76150
L79160 76210
L79110 76260
L79020 76290
L78880 76290
" />
<path d="M79720 76290
L79720 75980
L79700 75930
L79640 75900
L79530 75900
L79470 75930
" />
<path d="M79720 76260
L79670 76290
L79530 76290
L79470 76260
L79440 76210
L79440 76150
L79470 76100
L79530 76070
L79670 76070
L79720 76040
" />
<path d="M79920 75900
L80140 75900
" />
<path d="M80000 75700
L80000 76210
L80030 76260
L80080 76290
L80140 76290
" />
<path d="M80570 76260
L80510 76290
L80400 76290
L80340 76260
L80310 76210
L80310 75980
L80340 75930
L80400 75900
L80510 75900
L80570 75930
L80590 75980
L80590 76040
L80310 76100
" />
<path d="M80850 76240
L80880 76260
L80850 76290
L80820 76260
L80850 76240
L80850 76290
" />
<path d="M80850 75930
L80880 75950
L80850 75980
L80820 75950
L80850 75930
L80850 75980
" />
</g>
<g style="fill:#840000; fill-opacity:0.0; 
stroke:#840000; stroke-width:100; stroke-opacity:1; 
stroke-linecap:round; stroke-linejoin:round;">
</g>
<g style="fill:#840000; fill-opacity:0.0; 
stroke:#840000; stroke-width:60; stroke-opacity:1; 
stroke-linecap:round; stroke-linejoin:round;">
<path d="M69690 76580
L112210 76580
" />
</g>
<g style="fill:#840000; fill-opacity:0.0; 
stroke:#840000; stroke-width:100; stroke-opacity:1; 
stroke-linecap:round; stroke-linejoin:round;">
</g>
<g style="fill:#840000; fill-opacity:0.0; 
stroke:#840000; stroke-width:60; stroke-opacity:1; 
stroke-linecap:round; stroke-linejoin:round;">
<path d="M70220 77390
L70220 76800
" />
<path d="M70560 77390
L70300 77050
" />
<path d="M70560 76800
L70220 77140
" />
<path d="M70810 77390
L70810 77000
" />
<path d="M70810 76800
L70780 76830
L70810 76860
L70840 76830
L70810 76800
L70810 76860
" />
<path d="M71430 77340
L71400 77360
L71320 77390
L71260 77390
L71170 77360
L71120 77310
L71090 77250
L71060 77140
L71060 77050
L71090 76940
L71120 76890
L71170 76830
L71260 76800
L71320 76800
L71400 76830
L71430 76860
" />
<path d="M71930 77390
L71930 77080
L71910 77030
L71850 77000
L71740 77000
L71680 77030
" />
<path d="M71930 77360
L71880 77390
L71740 77390
L71680 77360
L71650 77310
L71650 77250
L71680 77200
L71740 77170
L71880 77170
L71930 77140
" />
<path d="M72460 77390
L72460 76800
" />
<path d="M72460 77360
L72410 77390
L72290 77390
L72240 77360
L72210 77340
L72180 77280
L72180 77110
L72210 77050
L72240 77030
L72290 77000
L72410 77000
L72460 77030
" />
<path d="M73190 77080
L73390 77080
" />
<path d="M73470 77390
L73190 77390
L73190 76800
L73470 76800
" />
<path d="M73720 77340
L73750 77360
L73720 77390
L73690 77360
L73720 77340
L73720 77390
" />
<path d="M74000 77390
L74000 76800
L74140 76800
L74230 76830
L74280 76890
L74310 76940
L74340 77050
L74340 77140
L74310 77250
L74280 77310
L74230 77360
L74140 77390
L74000 77390
" />
<path d="M74590 77340
L74620 77360
L74590 77390
L74560 77360
L74590 77340
L74590 77390
" />
<path d="M74840 77220
L75120 77220
" />
<path d="M74790 77390
L74980 76800
L75180 77390
" />
<path d="M75380 77340
L75410 77360
L75380 77390
L75350 77360
L75380 77340
L75380 77390
" />
<path d="M76560 77390
L76560 76800
" />
<path d="M76620 77170
L76790 77390
" />
<path d="M76790 77000
L76560 77220
" />
<path d="M77040 77390
L77040 77000
" />
<path d="M77040 76800
L77010 76830
L77040 76860
L77070 76830
L77040 76800
L77040 76860
" />
<path d="M77570 77360
L77520 77390
L77400 77390
L77350 77360
L77320 77340
L77290 77280
L77290 77110
L77320 77050
L77350 77030
L77400 77000
L77520 77000
L77570 77030
" />
<path d="M78080 77390
L78080 77080
L78060 77030
L78000 77000
L77890 77000
L77830 77030
" />
<path d="M78080 77360
L78030 77390
L77890 77390
L77830 77360
L77800 77310
L77800 77250
L77830 77200
L77890 77170
L78030 77170
L78080 77140
" />
<path d="M78610 77390
L78610 76800
" />
<path d="M78610 77360
L78560 77390
L78440 77390
L78390 77360
L78360 77340
L78330 77280
L78330 77110
L78360 77050
L78390 77030
L78440 77000
L78560 77000
L78610 77030
" />
<path d="M79510 77620
L79480 77590
L79420 77500
L79400 77450
L79370 77360
L79340 77220
L79340 77110
L79370 76970
L79400 76890
L79420 76830
L79480 76750
L79510 76720
" />
<path d="M79980 77390
L79980 77080
L79960 77030
L79900 77000
L79790 77000
L79730 77030
" />
<path d="M79980 77360
L79930 77390
L79790 77390
L79730 77360
L79700 77310
L79700 77250
L79730 77200
L79790 77170
L79930 77170
L79980 77140
" />
<path d="M80180 77000
L80400 77000
" />
<path d="M80260 77390
L80260 76890
L80290 76830
L80340 76800
L80400 76800
" />
<path d="M80520 77000
L80740 77000
" />
<path d="M80600 76800
L80600 77310
L80630 77360
L80680 77390
L80740 77390
" />
<path d="M81170 77360
L81110 77390
L81000 77390
L80940 77360
L80910 77310
L80910 77080
L80940 77030
L81000 77000
L81110 77000
L81170 77030
L81190 77080
L81190 77140
L80910 77200
" />
<path d="M81450 77390
L81450 77000
" />
<path d="M81450 77110
L81480 77050
L81510 77030
L81560 77000
L81620 77000
" />
<path d="M82240 76860
L82270 76830
L82330 76800
L82470 76800
L82520 76830
L82550 76860
L82580 76910
L82580 76970
L82550 77050
L82210 77390
L82580 77390
" />
<path d="M82940 76800
L83000 76800
L83060 76830
L83080 76860
L83110 76910
L83140 77030
L83140 77170
L83110 77280
L83080 77340
L83060 77360
L83000 77390
L82940 77390
L82890 77360
L82860 77340
L82830 77280
L82800 77170
L82800 77030
L82830 76910
L82860 76860
L82890 76830
L82940 76800
" />
<path d="M83700 77390
L83360 77390
" />
<path d="M83530 77390
L83530 76800
L83470 76890
L83420 76940
L83360 76970
" />
<path d="M84230 76800
L83950 76800
L83920 77080
L83950 77050
L84010 77030
L84150 77030
L84200 77050
L84230 77080
L84260 77140
L84260 77280
L84230 77340
L84200 77360
L84150 77390
L84010 77390
L83950 77360
L83920 77340
" />
<path d="M84510 77170
L84960 77170
" />
<path d="M85240 77390
L85240 77000
" />
<path d="M85240 77050
L85270 77030
L85320 77000
L85410 77000
L85470 77030
L85490 77080
L85490 77390
" />
<path d="M85490 77080
L85520 77030
L85580 77000
L85660 77000
L85720 77030
L85750 77080
L85750 77390
" />
<path d="M86280 77390
L86280 77080
L86260 77030
L86200 77000
L86090 77000
L86030 77030
" />
<path d="M86280 77360
L86230 77390
L86090 77390
L86030 77360
L86000 77310
L86000 77250
L86030 77200
L86090 77170
L86230 77170
L86280 77140
" />
<path d="M86560 77390
L86560 77000
" />
<path d="M86560 77110
L86590 77050
L86620 77030
L86670 77000
L86730 77000
" />
<path d="M86930 77170
L87380 77170
" />
<path d="M87770 76800
L87830 76800
L87890 76830
L87910 76860
L87940 76910
L87970 77030
L87970 77170
L87940 77280
L87910 77340
L87890 77360
L87830 77390
L87770 77390
L87720 77360
L87690 77340
L87660 77280
L87630 77170
L87630 77030
L87660 76910
L87690 76860
L87720 76830
L87770 76800
" />
<path d="M88470 77000
L88470 77390
" />
<path d="M88330 76770
L88190 77200
L88560 77200
" />
<path d="M89430 77080
L89510 77110
L89540 77140
L89570 77200
L89570 77280
L89540 77340
L89510 77360
L89460 77390
L89230 77390
L89230 76800
L89430 76800
L89480 76830
L89510 76860
L89540 76910
L89540 76970
L89510 77030
L89480 77050
L89430 77080
L89230 77080
" />
<path d="M89760 76800
L90160 76800
L89760 77390
L90160 77390
" />
<path d="M90720 77390
L90520 77110
" />
<path d="M90380 77390
L90380 76800
L90610 76800
L90660 76830
L90690 76860
L90720 76910
L90720 77000
L90690 77050
L90660 77080
L90610 77110
L90380 77110
" />
<path d="M91670 77000
L91670 77390
" />
<path d="M91420 77000
L91420 77310
L91450 77360
L91500 77390
L91590 77390
L91650 77360
L91670 77340
" />
<path d="M91950 77000
L91950 77390
" />
<path d="M91950 77050
L91980 77030
L92030 77000
L92120 77000
L92180 77030
L92200 77080
L92200 77390
" />
<path d="M92480 77390
L92480 76800
" />
<path d="M92540 77170
L92710 77390
" />
<path d="M92710 77000
L92480 77220
" />
<path d="M92960 77000
L92960 77390
" />
<path d="M92960 77050
L92990 77030
L93040 77000
L93130 77000
L93190 77030
L93210 77080
L93210 77390
" />
<path d="M93570 77390
L93520 77360
L93490 77340
L93460 77280
L93460 77110
L93490 77050
L93520 77030
L93570 77000
L93660 77000
L93720 77030
L93740 77050
L93770 77110
L93770 77280
L93740 77340
L93720 77360
L93660 77390
L93570 77390
" />
<path d="M93960 77000
L94080 77390
L94190 77110
L94300 77390
L94410 77000
" />
<path d="M94640 77000
L94640 77390
" />
<path d="M94640 77050
L94670 77030
L94720 77000
L94810 77000
L94870 77030
L94890 77080
L94890 77390
" />
<path d="M95110 77620
L95140 77590
L95200 77500
L95230 77450
L95250 77360
L95280 77220
L95280 77110
L95250 76970
L95230 76890
L95200 76830
L95140 76750
L95110 76720
" />
<path d="M95560 77170
L96010 77170
" />
<path d="M96290 77000
L96290 77590
" />
<path d="M96290 77030
L96350 77000
L96460 77000
L96520 77030
L96540 77050
L96570 77110
L96570 77280
L96540 77340
L96520 77360
L96460 77390
L96350 77390
L96290 77360
" />
<path d="M96820 77390
L96820 77000
" />
<path d="M96820 77110
L96850 77050
L96880 77030
L96930 77000
L96990 77000
" />
<path d="M97270 77390
L97220 77360
L97190 77340
L97160 77280
L97160 77110
L97190 77050
L97220 77030
L97270 77000
L97360 77000
L97420 77030
L97440 77050
L97470 77110
L97470 77280
L97440 77340
L97420 77360
L97360 77390
L97270 77390
" />
<path d="M97970 77390
L97970 76800
" />
<path d="M97970 77360
L97920 77390
L97800 77390
L97750 77360
L97720 77340
L97690 77280
L97690 77110
L97720 77050
L97750 77030
L97800 77000
L97920 77000
L97970 77030
" />
<path d="M98500 77000
L98500 77390
" />
<path d="M98250 77000
L98250 77310
L98280 77360
L98330 77390
L98420 77390
L98480 77360
L98500 77340
" />
<path d="M99030 77360
L98980 77390
L98860 77390
L98810 77360
L98780 77340
L98750 77280
L98750 77110
L98780 77050
L98810 77030
L98860 77000
L98980 77000
L99030 77030
" />
<path d="M99210 77000
L99430 77000
" />
<path d="M99290 76800
L99290 77310
L99320 77360
L99370 77390
L99430 77390
" />
</g>
<g style="fill:#840000; fill-opacity:0.0; 
stroke:#840000; stroke-width:100; stroke-opacity:1; 
stroke-linecap:round; stroke-linejoin:round;">
</g>
<g style="fill:#840000; fill-opacity:0.0; 
stroke:#840000; stroke-width:60; stroke-opacity:1; 
stroke-linecap:round; stroke-linejoin:round;">
<path d="M69690 75400
L112210 75400
" />
</g>
<g style="fill:#840000; fill-opacity:0.0; 
stroke:#840000; stroke-width:100; stroke-opacity:1; 
stroke-linecap:round; stroke-linejoin:round;">
</g>
<g style="fill:#840000; fill-opacity:0.0; 
stroke:#840000; stroke-width:120; stroke-opacity:1; 
stroke-linecap:round; stroke-linejoin:round;">
<path d="M104020 76290
L103820 76010
" />
<path d="M103680 76290
L103680 75700
L103910 75700
L103960 75730
L103990 75760
L104020 75810
L104020 75900
L103990 75950
L103960 75980
L103910 76010
L103680 76010
" />
<path d="M104500 76260
L104440 76290
L104330 76290
L104270 76260
L104240 76210
L104240 75980
L104270 75930
L104330 75900
L104440 75900
L104500 75930
L104520 75980
L104520 76040
L104240 76100
" />
<path d="M104720 75900
L104860 76290
L105010 75900
" />
<path d="M105230 76240
L105260 76260
L105230 76290
L105200 76260
L105230 76240
L105230 76290
" />
<path d="M105230 75930
L105260 75950
L105230 75980
L105200 75950
L105230 75930
L105230 75980
" />
</g>
<g style="fill:#840000; fill-opacity:0.0; 
stroke:#840000; stroke-width:100; stroke-opacity:1; 
stroke-linecap:round; stroke-linejoin:round;">
</g>
<g style="fill:#840000; fill-opacity:0.0; 
stroke:#840000; stroke-width:60; stroke-opacity:1; 
stroke-linecap:round; stroke-linejoin:round;">
<path d="M70190 76260
L70280 76290
L70420 76290
L70470 76260
L70500 76240
L70530 76180
L70530 76120
L70500 76070
L70470 76040
L70420 76010
L70300 75980
L70250 75950
L70220 75930
L70190 75870
L70190 75810
L70220 75760
L70250 75730
L70300 75700
L70450 75700
L70530 75730
" />
<path d="M70780 76290
L70780 75900
" />
<path d="M70780 75700
L70750 75730
L70780 75760
L70810 75730
L70780 75700
L70780 75760
" />
<path d="M71000 75900
L71310 75900
L71000 76290
L71310 76290
" />
<path d="M71770 76260
L71710 76290
L71600 76290
L71540 76260
L71510 76210
L71510 75980
L71540 75930
L71600 75900
L71710 75900
L71770 75930
L71790 75980
L71790 76040
L71510 76100
" />
<path d="M72050 76240
L72080 76260
L72050 76290
L72020 76260
L72050 76240
L72050 76290
" />
<path d="M72050 75930
L72080 75950
L72050 75980
L72020 75950
L72050 75930
L72050 75980
" />
<path d="M72750 76120
L73030 76120
" />
<path d="M72700 76290
L72890 75700
L73090 76290
" />
<path d="M73540 75900
L73540 76290
" />
<path d="M73400 75670
L73260 76100
L73630 76100
" />
</g>
<g style="fill:#840000; fill-opacity:0.0; 
stroke:#840000; stroke-width:100; stroke-opacity:1; 
stroke-linecap:round; stroke-linejoin:round;">
</g>
<g style="fill:#840000; fill-opacity:0.0; 
stroke:#840000; stroke-width:60; stroke-opacity:1; 
stroke-linecap:round; stroke-linejoin:round;">
<path d="M103680 77390
L103680 76800
" />
<path d="M104210 77390
L104210 76800
" />
<path d="M104210 77360
L104160 77390
L104040 77390
L103990 77360
L103960 77340
L103930 77280
L103930 77110
L103960 77050
L103990 77030
L104040 77000
L104160 77000
L104210 77030
" />
<path d="M104490 77340
L104520 77360
L104490 77390
L104460 77360
L104490 77340
L104490 77390
" />
<path d="M104490 77030
L104520 77050
L104490 77080
L104460 77050
L104490 77030
L104490 77080
" />
<path d="M105530 77390
L105190 77390
" />
<path d="M105360 77390
L105360 76800
L105300 76890
L105250 76940
L105190 76970
" />
<path d="M106200 76770
L105700 77530
" />
<path d="M106710 77390
L106370 77390
" />
<path d="M106540 77390
L106540 76800
L106480 76890
L106430 76940
L106370 76970
" />
</g>
<g style="fill:#840000; fill-opacity:0.0; 
stroke:#840000; stroke-width:100; stroke-opacity:1; 
stroke-linecap:round; stroke-linejoin:round;">
</g>
<g style="fill:#840000; fill-opacity:0.0; 
stroke:#840000; stroke-width:60; stroke-opacity:1; 
stroke-linecap:round; stroke-linejoin:round;">
<path d="M69690 73820
L112210 73820
" />
</g>
<g style="fill:#840000; fill-opacity:0.0; 
stroke:#840000; stroke-width:100; stroke-opacity:1; 
stroke-linecap:round; stroke-linejoin:round;">
</g>
<g style="fill:#840000; fill-opacity:0.0; 
stroke:#840000; stroke-width:160; stroke-opacity:1; 
stroke-linecap:round; stroke-linejoin:round;">
<path d="M70260 74090
L70710 74090
" />
<path d="M70390 74880
L70480 74090
" />
<path d="M70880 74880
L70940 74360
" />
<path d="M70970 74090
L70930 74130
L70960 74170
L71010 74130
L70970 74090
L70960 74170
" />
<path d="M71210 74360
L71510 74360
" />
<path d="M71350 74090
L71270 74770
L71300 74840
L71370 74880
L71450 74880
" />
<path d="M71820 74880
L71750 74840
L71720 74770
L71800 74090
" />
<path d="M72420 74840
L72340 74880
L72190 74880
L72120 74840
L72090 74770
L72130 74470
L72180 74390
L72250 74360
L72400 74360
L72480 74390
L72510 74470
L72500 74540
L72110 74620
" />
<path d="M72800 74810
L72840 74840
L72800 74880
L72760 74840
L72800 74810
L72800 74880
" />
<path d="M72860 74390
L72890 74430
L72850 74470
L72810 74430
L72860 74390
L72850 74470
" />
</g>
<g style="fill:#840000; fill-opacity:0.0; 
stroke:#840000; stroke-width:100; stroke-opacity:1; 
stroke-linecap:round; stroke-linejoin:round;">
</g>
<g style="fill:#840000; fill-opacity:0.0; 
stroke:#840000; stroke-width:60; stroke-opacity:1; 
stroke-linecap:round; stroke-linejoin:round;">
<path d="M70420 73060
L70220 73060
" />
<path d="M70220 73370
L70220 72780
L70500 72780
" />
<path d="M70730 73370
L70730 72980
" />
<path d="M70730 72780
L70700 72810
L70730 72840
L70760 72810
L70730 72780
L70730 72840
" />
<path d="M71090 73370
L71040 73340
L71010 73290
L71010 72780
" />
<path d="M71550 73340
L71490 73370
L71380 73370
L71320 73340
L71290 73290
L71290 73060
L71320 73010
L71380 72980
L71490 72980
L71550 73010
L71570 73060
L71570 73120
L71290 73180
" />
<path d="M71830 73320
L71860 73340
L71830 73370
L71800 73340
L71830 73320
L71830 73370
" />
<path d="M71830 73010
L71860 73030
L71830 73060
L71800 73030
L71830 73010
L71830 73060
" />
<path d="M72560 72980
L72560 73570
" />
<path d="M72560 73010
L72620 72980
L72730 72980
L72790 73010
L72810 73030
L72840 73090
L72840 73260
L72810 73320
L72790 73340
L72730 73370
L72620 73370
L72560 73340
" />
<path d="M73090 73370
L73090 72980
" />
<path d="M73090 72780
L73060 72810
L73090 72840
L73120 72810
L73090 72780
L73090 72840
" />
<path d="M73620 73340
L73570 73370
L73450 73370
L73400 73340
L73370 73320
L73340 73260
L73340 73090
L73370 73030
L73400 73010
L73450 72980
L73570 72980
L73620 73010
" />
<path d="M73800 72980
L74020 72980
" />
<path d="M73880 73370
L73880 72870
L73910 72810
L73960 72780
L74020 72780
" />
<path d="M74300 73370
L74250 73340
L74220 73290
L74220 72780
" />
<path d="M74780 73370
L74780 73060
L74760 73010
L74700 72980
L74590 72980
L74530 73010
" />
<path d="M74780 73340
L74730 73370
L74590 73370
L74530 73340
L74500 73290
L74500 73230
L74530 73180
L74590 73150
L74730 73150
L74780 73120
" />
<path d="M75030 73340
L75090 73370
L75200 73370
L75260 73340
L75290 73290
L75290 73260
L75260 73200
L75200 73180
L75120 73180
L75060 73150
L75030 73090
L75030 73060
L75060 73010
L75120 72980
L75200 72980
L75260 73010
" />
<path d="M75540 73370
L75540 72780
" />
<path d="M75790 73370
L75790 73060
L75770 73010
L75710 72980
L75620 72980
L75570 73010
L75540 73030
" />
<path d="M76300 73340
L76240 73370
L76130 73370
L76070 73340
L76040 73290
L76040 73060
L76070 73010
L76130 72980
L76240 72980
L76300 73010
L76320 73060
L76320 73120
L76040 73180
" />
<path d="M76580 73370
L76580 72980
" />
<path d="M76580 73090
L76610 73030
L76640 73010
L76690 72980
L76750 72980
" />
<path d="M76950 73320
L76980 73340
L76950 73370
L76920 73340
L76950 73320
L76950 73370
" />
<path d="M77200 73340
L77260 73370
L77370 73370
L77430 73340
L77460 73290
L77460 73260
L77430 73200
L77370 73180
L77290 73180
L77230 73150
L77200 73090
L77200 73060
L77230 73010
L77290 72980
L77370 72980
L77430 73010
" />
<path d="M77960 73340
L77910 73370
L77790 73370
L77740 73340
L77710 73320
L77680 73260
L77680 73090
L77710 73030
L77740 73010
L77790 72980
L77910 72980
L77960 73010
" />
<path d="M78220 73370
L78220 72780
" />
<path d="M78470 73370
L78470 73060
L78450 73010
L78390 72980
L78300 72980
L78250 73010
L78220 73030
" />
</g>
<g style="fill:#840000; fill-opacity:0.0; 
stroke:#840000; stroke-width:100; stroke-opacity:1; 
stroke-linecap:round; stroke-linejoin:round;">
</g>
<g style="fill:#840000; fill-opacity:0.0; 
stroke:#840000; stroke-width:60; stroke-opacity:1; 
stroke-linecap:round; stroke-linejoin:round;">
<path d="M69690 71460
L112210 71460
" />
</g>
<g style="fill:#840000; fill-opacity:0.0; 
stroke:#840000; stroke-width:100; stroke-opacity:1; 
stroke-linecap:round; stroke-linejoin:round;">
</g>
<g style="fill:#840000; fill-opacity:0.0; 
stroke:#840000; stroke-width:60; stroke-opacity:1; 
stroke-linecap:round; stroke-linejoin:round;">
<path d="M70190 72280
L70280 72310
L70420 72310
L70470 72280
L70500 72260
L70530 72200
L70530 72140
L70500 72090
L70470 72060
L70420 72030
L70300 72000
L70250 71970
L70220 71950
L70190 71890
L70190 71830
L70220 71780
L70250 71750
L70300 71720
L70450 71720
L70530 71750
" />
<path d="M70780 72310
L70780 71720
" />
<path d="M71030 72310
L71030 72000
L71010 71950
L70950 71920
L70860 71920
L70810 71950
L70780 71970
" />
<path d="M71540 72280
L71480 72310
L71370 72310
L71310 72280
L71280 72230
L71280 72000
L71310 71950
L71370 71920
L71480 71920
L71540 71950
L71560 72000
L71560 72060
L71280 72120
" />
<path d="M72050 72280
L71990 72310
L71880 72310
L71820 72280
L71790 72230
L71790 72000
L71820 71950
L71880 71920
L71990 71920
L72050 71950
L72070 72000
L72070 72060
L71790 72120
" />
<path d="M72250 71920
L72470 71920
" />
<path d="M72330 71720
L72330 72230
L72360 72280
L72410 72310
L72470 72310
" />
<path d="M72670 72260
L72700 72280
L72670 72310
L72640 72280
L72670 72260
L72670 72310
" />
<path d="M72670 71950
L72700 71970
L72670 72000
L72640 71970
L72670 71950
L72670 72000
" />
<path d="M73820 71690
L73320 72450
" />
</g>
<g style="fill:#840000; fill-opacity:0.0; 
stroke:#840000; stroke-width:100; stroke-opacity:1; 
stroke-linecap:round; stroke-linejoin:round;">
</g>
<g style="fill:#840000; fill-opacity:0.0; 
stroke:#840000; stroke-width:60; stroke-opacity:1; 
stroke-linecap:round; stroke-linejoin:round;">
<path d="M77560 75400
L77560 76580
" />
</g>
<g style="fill:#840000; fill-opacity:0.0; 
stroke:#840000; stroke-width:100; stroke-opacity:1; 
stroke-linecap:round; stroke-linejoin:round;">
</g>
<g style="fill:#840000; fill-opacity:0.0; 
stroke:#840000; stroke-width:60; stroke-opacity:1; 
stroke-linecap:round; stroke-linejoin:round;">
<path d="M102760 75400
L102760 77960
" />
</g>
<g style="fill:#840000; fill-opacity:0.0; 
stroke:#840000; stroke-width:0; stroke-opacity:1; 
stroke-linecap:round; stroke-linejoin:round;">
</g>
<g style="fill:#840000; fill-opacity:0.0; 
stroke:#840000; stroke-width:60; stroke-opacity:1; 
stroke-linecap:round; stroke-linejoin:round;">
<path d="M47660 32970
L47260 32970
" />
<path d="M47460 32970
L47460 32270
L47400 32370
L47330 32430
L47260 32470
" />
<path d="M48270 32270
L48130 32270
L48070 32300
L48030 32330
L47970 32430
L47930 32570
L47930 32830
L47970 32900
L48000 32930
L48070 32970
L48200 32970
L48270 32930
L48300 32900
L48330 32830
L48330 32670
L48300 32600
L48270 32570
L48200 32530
L48070 32530
L48000 32570
L47970 32600
L47930 32670
" />
<path d="M48870 32600
L48640 32600
" />
<path d="M48640 32970
L48640 32270
L48970 32270
" />
<path d="M49540 32270
L49400 32270
L49340 32300
L49300 32330
L49240 32430
L49200 32570
L49200 32830
L49240 32900
L49270 32930
L49340 32970
L49470 32970
L49540 32930
L49570 32900
L49600 32830
L49600 32670
L49570 32600
L49540 32570
L49470 32530
L49340 32530
L49270 32570
L49240 32600
L49200 32670
" />
<path d="M50010 32570
L49940 32530
L49910 32500
L49870 32430
L49870 32400
L49910 32330
L49940 32300
L50010 32270
L50140 32270
L50210 32300
L50240 32330
L50270 32400
L50270 32430
L50240 32500
L50210 32530
L50140 32570
L50010 32570
L49940 32600
L49910 32630
L49870 32700
L49870 32830
L49910 32900
L49940 32930
L50010 32970
L50140 32970
L50210 32930
L50240 32900
L50270 32830
L50270 32700
L50240 32630
L50210 32600
L50140 32570
" />
<path d="M50680 32570
L50610 32530
L50580 32500
L50540 32430
L50540 32400
L50580 32330
L50610 32300
L50680 32270
L50810 32270
L50880 32300
L50910 32330
L50940 32400
L50940 32430
L50910 32500
L50880 32530
L50810 32570
L50680 32570
L50610 32600
L50580 32630
L50540 32700
L50540 32830
L50580 32900
L50610 32930
L50680 32970
L50810 32970
L50880 32930
L50910 32900
L50940 32830
L50940 32700
L50910 32630
L50880 32600
L50810 32570
" />
<polyline fill="none;"
points="39000,32000
39000,20000
" /> 
<polyline fill="none;"
points="39000,32000
51000,32000
" /> 
<polyline fill="none;"
points="51000,20000
39000,20000
" /> 
<polyline fill="none;"
points="51000,20000
51000,32000
" /> 
<path d="M45000 20000
L45000 19000
" />
</g>
<g style="fill:#008484; fill-opacity:0.0; 
stroke:#008484; stroke-width:60; stroke-opacity:1; 
stroke-linecap:round; stroke-linejoin:round;">
<path d="M44780 21500
L45180 21370
L44780 21240
" />
<path d="M45180 21100
L44780 21100
L44780 21010
L44800 20950
L44840 20910
L44880 20900
L44950 20880
L45010 20880
L45090 20900
L45120 20910
L45160 20950
L45180 21010
L45180 21100
" />
<path d="M45180 20700
L44780 20700
L44780 20610
L44800 20550
L44840 20510
L44880 20500
L44950 20480
L45010 20480
L45090 20500
L45120 20510
L45160 20550
L45180 20610
L45180 20700
" />
</g>
<g style="fill:#840000; fill-opacity:0.0; 
stroke:#840000; stroke-width:60; stroke-opacity:1; 
stroke-linecap:round; stroke-linejoin:round;">
<path d="M44880 19390
L44880 19610
" />
<path d="M44880 19500
L44480 19500
L44540 19540
L44580 19580
L44600 19610
" />
<path d="M51000 31000
L52000 31000
" />
</g>
<g style="fill:#008484; fill-opacity:0.0; 
stroke:#008484; stroke-width:60; stroke-opacity:1; 
stroke-linecap:round; stroke-linejoin:round;">
<path d="M49800 31180
L49670 30990
" />
<path d="M49580 31180
L49580 30780
L49730 30780
L49770 30800
L49780 30820
L49800 30860
L49800 30910
L49780 30950
L49770 30970
L49730 30990
L49580 30990
" />
<path d="M49960 31070
L50150 31070
" />
<path d="M49920 31180
L50050 30780
L50180 31180
" />
<path d="M50510 30780
L50320 30780
L50300 30970
L50320 30950
L50350 30930
L50450 30930
L50490 30950
L50510 30970
L50520 31010
L50520 31100
L50510 31140
L50490 31160
L50450 31180
L50350 31180
L50320 31160
L50300 31140
" />
</g>
<g style="fill:#840000; fill-opacity:0.0; 
stroke:#840000; stroke-width:60; stroke-opacity:1; 
stroke-linecap:round; stroke-linejoin:round;">
<path d="M51390 30520
L51410 30500
L51440 30480
L51540 30480
L51580 30500
L51600 30520
L51610 30560
L51610 30600
L51600 30650
L51370 30880
L51610 30880
" />
<path d="M51000 29000
L52000 29000
" />
</g>
<g style="fill:#008484; fill-opacity:0.0; 
stroke:#008484; stroke-width:60; stroke-opacity:1; 
stroke-linecap:round; stroke-linejoin:round;">
<path d="M49800 29180
L49670 28990
" />
<path d="M49580 29180
L49580 28780
L49730 28780
L49770 28800
L49780 28820
L49800 28860
L49800 28910
L49780 28950
L49770 28970
L49730 28990
L49580 28990
" />
<path d="M49960 29070
L50150 29070
" />
<path d="M49920 29180
L50050 28780
L50180 29180
" />
<path d="M50490 28910
L50490 29180
" />
<path d="M50390 28760
L50300 29050
L50540 29050
" />
</g>
<g style="fill:#840000; fill-opacity:0.0; 
stroke:#840000; stroke-width:60; stroke-opacity:1; 
stroke-linecap:round; stroke-linejoin:round;">
<path d="M51370 28480
L51610 28480
L51480 28630
L51540 28630
L51580 28650
L51600 28670
L51610 28710
L51610 28800
L51600 28840
L51580 28860
L51540 28880
L51420 28880
L51390 28860
L51370 28840
" />
<path d="M51000 27000
L52000 27000
" />
</g>
<g style="fill:#008484; fill-opacity:0.0; 
stroke:#008484; stroke-width:60; stroke-opacity:1; 
stroke-linecap:round; stroke-linejoin:round;">
<path d="M48080 26780
L48210 27180
L48340 26780
" />
<path d="M48480 27180
L48480 26780
L48630 26780
L48670 26800
L48680 26820
L48700 26860
L48700 26910
L48680 26950
L48670 26970
L48630 26990
L48480 26990
" />
<path d="M48880 27180
L48880 26780
L49030 26780
L49070 26800
L49080 26820
L49100 26860
L49100 26910
L49080 26950
L49070 26970
L49030 26990
L48880 26990
" />
<path d="M49180 27220
L49480 27220
" />
<path d="M49800 27180
L49670 26990
" />
<path d="M49580 27180
L49580 26780
L49730 26780
L49770 26800
L49780 26820
L49800 26860
L49800 26910
L49780 26950
L49770 26970
L49730 26990
L49580 26990
" />
<path d="M49960 27070
L50150 27070
" />
<path d="M49920 27180
L50050 26780
L50180 27180
" />
<path d="M50280 26780
L50520 26780
L50390 26930
L50450 26930
L50490 26950
L50510 26970
L50520 27010
L50520 27100
L50510 27140
L50490 27160
L50450 27180
L50330 27180
L50300 27160
L50280 27140
" />
</g>
<g style="fill:#840000; fill-opacity:0.0; 
stroke:#840000; stroke-width:60; stroke-opacity:1; 
stroke-linecap:round; stroke-linejoin:round;">
<path d="M51580 26610
L51580 26880
" />
<path d="M51480 26460
L51390 26750
L51630 26750
" />
<path d="M39000 31000
L38000 31000
" />
</g>
<g style="fill:#008484; fill-opacity:0.0; 
stroke:#008484; stroke-width:60; stroke-opacity:1; 
stroke-linecap:round; stroke-linejoin:round;">
<path d="M39720 31180
L39590 30990
" />
<path d="M39500 31180
L39500 30780
L39650 30780
L39690 30800
L39700 30820
L39720 30860
L39720 30910
L39700 30950
L39690 30970
L39650 30990
L39500 30990
" />
<path d="M40120 31140
L40100 31160
L40050 31180
L40010 31180
L39950 31160
L39910 31120
L39900 31090
L39880 31010
L39880 30950
L39900 30880
L39910 30840
L39950 30800
L40010 30780
L40050 30780
L40100 30800
L40120 30820
" />
<path d="M40490 30780
L40300 30780
L40280 30970
L40300 30950
L40330 30930
L40430 30930
L40470 30950
L40490 30970
L40500 31010
L40500 31100
L40490 31140
L40470 31160
L40430 31180
L40330 31180
L40300 31160
L40280 31140
" />
</g>
<g style="fill:#840000; fill-opacity:0.0; 
stroke:#840000; stroke-width:60; stroke-opacity:1; 
stroke-linecap:round; stroke-linejoin:round;">
<path d="M38600 30480
L38410 30480
L38390 30670
L38410 30650
L38440 30630
L38540 30630
L38580 30650
L38600 30670
L38610 30710
L38610 30800
L38600 30840
L38580 30860
L38540 30880
L38440 30880
L38410 30860
L38390 30840
" />
<path d="M39000 29000
L38000 29000
" />
</g>
<g style="fill:#008484; fill-opacity:0.0; 
stroke:#008484; stroke-width:60; stroke-opacity:1; 
stroke-linecap:round; stroke-linejoin:round;">
<path d="M39720 29180
L39590 28990
" />
<path d="M39500 29180
L39500 28780
L39650 28780
L39690 28800
L39700 28820
L39720 28860
L39720 28910
L39700 28950
L39690 28970
L39650 28990
L39500 28990
" />
<path d="M40120 29140
L40100 29160
L40050 29180
L40010 29180
L39950 29160
L39910 29120
L39900 29090
L39880 29010
L39880 28950
L39900 28880
L39910 28840
L39950 28800
L40010 28780
L40050 28780
L40100 28800
L40120 28820
" />
<path d="M40470 28910
L40470 29180
" />
<path d="M40370 28760
L40280 29050
L40520 29050
" />
</g>
<g style="fill:#840000; fill-opacity:0.0; 
stroke:#840000; stroke-width:60; stroke-opacity:1; 
stroke-linecap:round; stroke-linejoin:round;">
<path d="M38580 28480
L38500 28480
L38460 28500
L38440 28520
L38410 28580
L38390 28650
L38390 28800
L38410 28840
L38420 28860
L38460 28880
L38540 28880
L38580 28860
L38600 28840
L38610 28800
L38610 28710
L38600 28670
L38580 28650
L38540 28630
L38460 28630
L38420 28650
L38410 28670
L38390 28710
" />
<path d="M39000 27000
L38000 27000
" />
</g>
<g style="fill:#008484; fill-opacity:0.0; 
stroke:#008484; stroke-width:60; stroke-opacity:1; 
stroke-linecap:round; stroke-linejoin:round;">
<path d="M39720 27180
L39590 26990
" />
<path d="M39500 27180
L39500 26780
L39650 26780
L39690 26800
L39700 26820
L39720 26860
L39720 26910
L39700 26950
L39690 26970
L39650 26990
L39500 26990
" />
<path d="M40120 27140
L40100 27160
L40050 27180
L40010 27180
L39950 27160
L39910 27120
L39900 27090
L39880 27010
L39880 26950
L39900 26880
L39910 26840
L39950 26800
L40010 26780
L40050 26780
L40100 26800
L40120 26820
" />
<path d="M40260 26780
L40500 26780
L40370 26930
L40430 26930
L40470 26950
L40490 26970
L40500 27010
L40500 27100
L40490 27140
L40470 27160
L40430 27180
L40310 27180
L40280 27160
L40260 27140
" />
</g>
<g style="fill:#840000; fill-opacity:0.0; 
stroke:#840000; stroke-width:60; stroke-opacity:1; 
stroke-linecap:round; stroke-linejoin:round;">
<path d="M38370 26480
L38630 26480
L38460 26880
" />
<path d="M39000 25000
L38000 25000
" />
</g>
<g style="fill:#008484; fill-opacity:0.0; 
stroke:#008484; stroke-width:60; stroke-opacity:1; 
stroke-linecap:round; stroke-linejoin:round;">
<path d="M39720 25180
L39590 24990
" />
<path d="M39500 25180
L39500 24780
L39650 24780
L39690 24800
L39700 24820
L39720 24860
L39720 24910
L39700 24950
L39690 24970
L39650 24990
L39500 24990
" />
<path d="M40120 25140
L40100 25160
L40050 25180
L40010 25180
L39950 25160
L39910 25120
L39900 25090
L39880 25010
L39880 24950
L39900 24880
L39910 24840
L39950 24800
L40010 24780
L40050 24780
L40100 24800
L40120 24820
" />
<path d="M40280 24820
L40300 24800
L40330 24780
L40430 24780
L40470 24800
L40490 24820
L40500 24860
L40500 24900
L40490 24950
L40260 25180
L40500 25180
" />
</g>
<g style="fill:#840000; fill-opacity:0.0; 
stroke:#840000; stroke-width:60; stroke-opacity:1; 
stroke-linecap:round; stroke-linejoin:round;">
<path d="M38460 24650
L38420 24630
L38410 24610
L38390 24580
L38390 24560
L38410 24520
L38420 24500
L38460 24480
L38540 24480
L38580 24500
L38600 24520
L38610 24560
L38610 24580
L38600 24610
L38580 24630
L38540 24650
L38460 24650
L38420 24670
L38410 24690
L38390 24730
L38390 24800
L38410 24840
L38420 24860
L38460 24880
L38540 24880
L38580 24860
L38600 24840
L38610 24800
L38610 24730
L38600 24690
L38580 24670
L38540 24650
" />
<path d="M39000 23000
L38000 23000
" />
</g>
<g style="fill:#008484; fill-opacity:0.0; 
stroke:#008484; stroke-width:60; stroke-opacity:1; 
stroke-linecap:round; stroke-linejoin:round;">
<path d="M39720 23180
L39590 22990
" />
<path d="M39500 23180
L39500 22780
L39650 22780
L39690 22800
L39700 22820
L39720 22860
L39720 22910
L39700 22950
L39690 22970
L39650 22990
L39500 22990
" />
<path d="M40120 23140
L40100 23160
L40050 23180
L40010 23180
L39950 23160
L39910 23120
L39900 23090
L39880 23010
L39880 22950
L39900 22880
L39910 22840
L39950 22800
L40010 22780
L40050 22780
L40100 22800
L40120 22820
" />
<path d="M40500 23180
L40280 23180
" />
<path d="M40390 23180
L40390 22780
L40350 22840
L40310 22880
L40280 22900
" />
</g>
<g style="fill:#840000; fill-opacity:0.0; 
stroke:#840000; stroke-width:60; stroke-opacity:1; 
stroke-linecap:round; stroke-linejoin:round;">
<path d="M38420 22880
L38500 22880
L38540 22860
L38560 22840
L38600 22790
L38610 22710
L38610 22560
L38600 22520
L38580 22500
L38540 22480
L38460 22480
L38420 22500
L38410 22520
L38390 22560
L38390 22650
L38410 22690
L38420 22710
L38460 22730
L38540 22730
L38580 22710
L38600 22690
L38610 22650
" />
<path d="M39000 21000
L38000 21000
" />
</g>
<g style="fill:#008484; fill-opacity:0.0; 
stroke:#008484; stroke-width:60; stroke-opacity:1; 
stroke-linecap:round; stroke-linejoin:round;">
<path d="M39720 21180
L39590 20990
" />
<path d="M39500 21180
L39500 20780
L39650 20780
L39690 20800
L39700 20820
L39720 20860
L39720 20910
L39700 20950
L39690 20970
L39650 20990
L39500 20990
" />
<path d="M40120 21140
L40100 21160
L40050 21180
L40010 21180
L39950 21160
L39910 21120
L39900 21090
L39880 21010
L39880 20950
L39900 20880
L39910 20840
L39950 20800
L40010 20780
L40050 20780
L40100 20800
L40120 20820
" />
<path d="M40370 20780
L40410 20780
L40450 20800
L40470 20820
L40490 20860
L40500 20930
L40500 21030
L40490 21100
L40470 21140
L40450 21160
L40410 21180
L40370 21180
L40330 21160
L40310 21140
L40300 21100
L40280 21030
L40280 20930
L40300 20860
L40310 20820
L40330 20800
L40370 20780
" />
</g>
<g style="fill:#840000; fill-opacity:0.0; 
stroke:#840000; stroke-width:60; stroke-opacity:1; 
stroke-linecap:round; stroke-linejoin:round;">
<path d="M38420 20880
L38200 20880
" />
<path d="M38310 20880
L38310 20480
L38270 20540
L38230 20580
L38200 20600
" />
<path d="M38670 20480
L38710 20480
L38750 20500
L38770 20520
L38790 20560
L38800 20630
L38800 20730
L38790 20800
L38770 20840
L38750 20860
L38710 20880
L38670 20880
L38630 20860
L38610 20840
L38600 20800
L38580 20730
L38580 20630
L38600 20560
L38610 20520
L38630 20500
L38670 20480
" />
<path d="M51000 25000
L52000 25000
" />
</g>
<g style="fill:#008484; fill-opacity:0.0; 
stroke:#008484; stroke-width:60; stroke-opacity:1; 
stroke-linecap:round; stroke-linejoin:round;">
<path d="M49800 25180
L49670 24990
" />
<path d="M49580 25180
L49580 24780
L49730 24780
L49770 24800
L49780 24820
L49800 24860
L49800 24910
L49780 24950
L49770 24970
L49730 24990
L49580 24990
" />
<path d="M49960 25070
L50150 25070
" />
<path d="M49920 25180
L50050 24780
L50180 25180
" />
<path d="M50300 24820
L50320 24800
L50350 24780
L50450 24780
L50490 24800
L50510 24820
L50520 24860
L50520 24900
L50510 24950
L50280 25180
L50520 25180
" />
</g>
<g style="fill:#840000; fill-opacity:0.0; 
stroke:#840000; stroke-width:60; stroke-opacity:1; 
stroke-linecap:round; stroke-linejoin:round;">
<path d="M51420 24880
L51200 24880
" />
<path d="M51310 24880
L51310 24480
L51270 24540
L51230 24580
L51200 24600
" />
<path d="M51800 24880
L51580 24880
" />
<path d="M51690 24880
L51690 24480
L51650 24540
L51610 24580
L51580 24600
" />
<path d="M51000 23000
L52000 23000
" />
</g>
<g style="fill:#008484; fill-opacity:0.0; 
stroke:#008484; stroke-width:60; stroke-opacity:1; 
stroke-linecap:round; stroke-linejoin:round;">
<path d="M48380 23140
L48360 23160
L48310 23180
L48270 23180
L48210 23160
L48170 23120
L48160 23090
L48140 23010
L48140 22950
L48160 22880
L48170 22840
L48210 22800
L48270 22780
L48310 22780
L48360 22800
L48380 22820
" />
<path d="M48750 23180
L48560 23180
L48560 22780
" />
<path d="M48880 23180
L48880 22780
" />
<path d="M49100 23180
L48930 22950
" />
<path d="M49100 22780
L48880 23010
" />
<path d="M49180 23220
L49480 23220
" />
<path d="M49800 23180
L49670 22990
" />
<path d="M49580 23180
L49580 22780
L49730 22780
L49770 22800
L49780 22820
L49800 22860
L49800 22910
L49780 22950
L49770 22970
L49730 22990
L49580 22990
" />
<path d="M49960 23070
L50150 23070
" />
<path d="M49920 23180
L50050 22780
L50180 23180
" />
<path d="M50520 23180
L50300 23180
" />
<path d="M50410 23180
L50410 22780
L50370 22840
L50330 22880
L50300 22900
" />
</g>
<g style="fill:#840000; fill-opacity:0.0; 
stroke:#840000; stroke-width:60; stroke-opacity:1; 
stroke-linecap:round; stroke-linejoin:round;">
<path d="M51420 22880
L51200 22880
" />
<path d="M51310 22880
L51310 22480
L51270 22540
L51230 22580
L51200 22600
" />
<path d="M51580 22520
L51600 22500
L51630 22480
L51730 22480
L51770 22500
L51790 22520
L51800 22560
L51800 22600
L51790 22650
L51560 22880
L51800 22880
" />
<path d="M51000 21000
L52000 21000
" />
</g>
<g style="fill:#008484; fill-opacity:0.0; 
stroke:#008484; stroke-width:60; stroke-opacity:1; 
stroke-linecap:round; stroke-linejoin:round;">
<path d="M48240 21180
L48240 20780
L48330 20780
L48390 20800
L48430 20840
L48440 20880
L48460 20950
L48460 21010
L48440 21090
L48430 21120
L48390 21160
L48330 21180
L48240 21180
" />
<path d="M48620 21070
L48810 21070
" />
<path d="M48580 21180
L48710 20780
L48840 21180
" />
<path d="M48920 20780
L49150 20780
" />
<path d="M49030 21180
L49030 20780
" />
<path d="M49180 21220
L49480 21220
" />
<path d="M49800 21180
L49670 20990
" />
<path d="M49580 21180
L49580 20780
L49730 20780
L49770 20800
L49780 20820
L49800 20860
L49800 20910
L49780 20950
L49770 20970
L49730 20990
L49580 20990
" />
<path d="M49960 21070
L50150 21070
" />
<path d="M49920 21180
L50050 20780
L50180 21180
" />
<path d="M50390 20780
L50430 20780
L50470 20800
L50490 20820
L50510 20860
L50520 20930
L50520 21030
L50510 21100
L50490 21140
L50470 21160
L50430 21180
L50390 21180
L50350 21160
L50330 21140
L50320 21100
L50300 21030
L50300 20930
L50320 20860
L50330 20820
L50350 20800
L50390 20780
" />
</g>
<g style="fill:#840000; fill-opacity:0.0; 
stroke:#840000; stroke-width:60; stroke-opacity:1; 
stroke-linecap:round; stroke-linejoin:round;">
<path d="M51420 20880
L51200 20880
" />
<path d="M51310 20880
L51310 20480
L51270 20540
L51230 20580
L51200 20600
" />
<path d="M51560 20480
L51800 20480
L51670 20630
L51730 20630
L51770 20650
L51790 20670
L51800 20710
L51800 20800
L51790 20840
L51770 20860
L51730 20880
L51610 20880
L51580 20860
L51560 20840
" />
<path d="M45000 32000
L45000 33000
" />
</g>
<g style="fill:#008484; fill-opacity:0.0; 
stroke:#008484; stroke-width:60; stroke-opacity:1; 
stroke-linecap:round; stroke-linejoin:round;">
<path d="M44800 31300
L44780 31330
L44780 31390
L44800 31450
L44840 31490
L44880 31500
L44950 31520
L45010 31520
L45090 31500
L45120 31490
L45160 31450
L45180 31390
L45180 31350
L45160 31300
L45140 31280
L45010 31280
L45010 31350
" />
<path d="M45180 31100
L44780 31100
L45180 30880
L44780 30880
" />
<path d="M45180 30680
L44780 30680
L44780 30590
L44800 30530
L44840 30490
L44880 30480
L44950 30460
L45010 30460
L45090 30480
L45120 30490
L45160 30530
L45180 30590
L45180 30680
" />
</g>
<g style="fill:#840000; fill-opacity:0.0; 
stroke:#840000; stroke-width:60; stroke-opacity:1; 
stroke-linecap:round; stroke-linejoin:round;">
<path d="M44880 32580
L44880 32800
" />
<path d="M44880 32690
L44480 32690
L44540 32730
L44580 32770
L44600 32800
" />
<path d="M44610 32230
L44880 32230
" />
<path d="M44460 32330
L44750 32420
L44750 32180
" />
</g>
<g style="fill:#008484; fill-opacity:0.0; 
stroke:#008484; stroke-width:60; stroke-opacity:1; 
stroke-linecap:round; stroke-linejoin:round;">
<path d="M42720 25240
L42720 24640
L42950 24640
L43010 24670
L43040 24700
L43070 24760
L43070 24840
L43040 24900
L43010 24930
L42950 24960
L42720 24960
" />
<path d="M43320 25240
L43320 24640
" />
<path d="M43960 25180
L43930 25210
L43840 25240
L43780 25240
L43700 25210
L43640 25160
L43610 25100
L43580 24980
L43580 24900
L43610 24780
L43640 24730
L43700 24670
L43780 24640
L43840 24640
L43930 24670
L43960 24700
" />
<path d="M44530 25240
L44180 25240
" />
<path d="M44360 25240
L44360 24640
L44300 24730
L44240 24780
L44180 24810
" />
<path d="M45040 24640
L44930 24640
L44870 24670
L44840 24700
L44780 24780
L44750 24900
L44750 25130
L44780 25180
L44810 25210
L44870 25240
L44980 25240
L45040 25210
L45070 25180
L45100 25130
L45100 24980
L45070 24930
L45040 24900
L44980 24870
L44870 24870
L44810 24900
L44780 24930
L44750 24980
" />
<path d="M45550 24930
L45350 24930
" />
<path d="M45350 25240
L45350 24640
L45640 24640
" />
<path d="M46120 24640
L46010 24640
L45950 24670
L45920 24700
L45860 24780
L45830 24900
L45830 25130
L45860 25180
L45890 25210
L45950 25240
L46060 25240
L46120 25210
L46150 25180
L46180 25130
L46180 24980
L46150 24930
L46120 24900
L46060 24870
L45950 24870
L45890 24900
L45860 24930
L45830 24980
" />
<path d="M46520 24900
L46460 24870
L46430 24840
L46400 24780
L46400 24760
L46430 24700
L46460 24670
L46520 24640
L46630 24640
L46690 24670
L46720 24700
L46750 24760
L46750 24780
L46720 24840
L46690 24870
L46630 24900
L46520 24900
L46460 24930
L46430 24960
L46400 25010
L46400 25130
L46430 25180
L46460 25210
L46520 25240
L46630 25240
L46690 25210
L46720 25180
L46750 25130
L46750 25010
L46720 24960
L46690 24930
L46630 24900
" />
<path d="M47090 24900
L47030 24870
L47000 24840
L46970 24780
L46970 24760
L47000 24700
L47030 24670
L47090 24640
L47200 24640
L47260 24670
L47290 24700
L47320 24760
L47320 24780
L47290 24840
L47260 24870
L47200 24900
L47090 24900
L47030 24930
L47000 24960
L46970 25010
L46970 25130
L47000 25180
L47030 25210
L47090 25240
L47200 25240
L47260 25210
L47290 25180
L47320 25130
L47320 25010
L47290 24960
L47260 24930
L47200 24900
" />
</g>
<g style="fill:#008484; fill-opacity:0.0; 
stroke:#008484; stroke-width:0; stroke-opacity:1; 
stroke-linecap:round; stroke-linejoin:round;">
</g>
<g style="fill:#840000; fill-opacity:0.0; 
stroke:#840000; stroke-width:60; stroke-opacity:1; 
stroke-linecap:round; stroke-linejoin:round;">
<rect x="24000" y="21000" width="6000" height="6000" rx="0" />
<path d="M25000 27000
L25000 29000
" />
</g>
<g style="fill:#008484; fill-opacity:0.0; 
stroke:#008484; stroke-width:60; stroke-opacity:1; 
stroke-linecap:round; stroke-linejoin:round;">
<path d="M24730 26550
L25230 26390
L24730 26220
" />
<path d="M25180 25770
L25200 25790
L25230 25860
L25230 25910
L25200 25980
L25150 26030
L25110 26050
L25010 26070
L24940 26070
L24850 26050
L24800 26030
L24750 25980
L24730 25910
L24730 25860
L24750 25790
L24770 25770
" />
<path d="M25180 25270
L25200 25290
L25230 25360
L25230 25410
L25200 25480
L25150 25530
L25110 25550
L25010 25570
L24940 25570
L24850 25550
L24800 25530
L24750 25480
L24730 25410
L24730 25360
L24750 25290
L24770 25270
" />
</g>
<g style="fill:#840000; fill-opacity:0.0; 
stroke:#840000; stroke-width:60; stroke-opacity:1; 
stroke-linecap:round; stroke-linejoin:round;">
<path d="M24880 27860
L24880 28140
" />
<path d="M24880 28000
L24380 28000
L24450 28050
L24500 28100
L24520 28140
" />
<path d="M26500 27000
L26500 29000
" />
</g>
<g style="fill:#008484; fill-opacity:0.0; 
stroke:#008484; stroke-width:60; stroke-opacity:1; 
stroke-linecap:round; stroke-linejoin:round;">
<path d="M26250 26220
L26230 26270
L26230 26340
L26250 26410
L26300 26460
L26350 26480
L26440 26500
L26510 26500
L26610 26480
L26650 26460
L26700 26410
L26730 26340
L26730 26290
L26700 26220
L26680 26200
L26510 26200
L26510 26290
" />
<path d="M26730 25980
L26230 25980
L26730 25700
L26230 25700
" />
<path d="M26730 25460
L26230 25460
L26230 25340
L26250 25270
L26300 25220
L26350 25200
L26440 25180
L26510 25180
L26610 25200
L26650 25220
L26700 25270
L26730 25340
L26730 25460
" />
</g>
<g style="fill:#840000; fill-opacity:0.0; 
stroke:#840000; stroke-width:60; stroke-opacity:1; 
stroke-linecap:round; stroke-linejoin:round;">
<path d="M25920 28140
L25900 28120
L25880 28070
L25880 27950
L25900 27910
L25920 27880
L25970 27860
L26020 27860
L26090 27880
L26380 28170
L26380 27860
" />
<path d="M28000 27000
L28000 29000
" />
</g>
<g style="fill:#008484; fill-opacity:0.0; 
stroke:#008484; stroke-width:60; stroke-opacity:1; 
stroke-linecap:round; stroke-linejoin:round;">
<path d="M27730 26550
L27730 26270
" />
<path d="M28230 26410
L27730 26410
" />
<path d="M27730 26150
L28230 25820
" />
<path d="M27730 25820
L28230 26150
" />
<path d="M28230 25620
L27730 25620
L27730 25500
L27750 25430
L27800 25380
L27850 25360
L27940 25340
L28010 25340
L28110 25360
L28150 25380
L28200 25430
L28230 25500
L28230 25620
" />
</g>
<g style="fill:#840000; fill-opacity:0.0; 
stroke:#840000; stroke-width:60; stroke-opacity:1; 
stroke-linecap:round; stroke-linejoin:round;">
<path d="M27380 28170
L27380 27860
L27570 28030
L27570 27950
L27590 27910
L27610 27880
L27660 27860
L27780 27860
L27830 27880
L27850 27910
L27880 27950
L27880 28100
L27850 28140
L27830 28170
" />
<path d="M29500 27000
L29500 29000
" />
</g>
<g style="fill:#008484; fill-opacity:0.0; 
stroke:#008484; stroke-width:60; stroke-opacity:1; 
stroke-linecap:round; stroke-linejoin:round;">
<path d="M29730 26200
L29490 26360
" />
<path d="M29730 26480
L29230 26480
L29230 26290
L29250 26240
L29270 26220
L29320 26200
L29390 26200
L29440 26220
L29460 26240
L29490 26290
L29490 26480
" />
<path d="M29230 26030
L29730 25700
" />
<path d="M29230 25700
L29730 26030
" />
<path d="M29730 25500
L29230 25500
L29230 25380
L29250 25310
L29300 25260
L29350 25240
L29440 25220
L29510 25220
L29610 25240
L29650 25260
L29700 25310
L29730 25380
L29730 25500
" />
</g>
<g style="fill:#840000; fill-opacity:0.0; 
stroke:#840000; stroke-width:60; stroke-opacity:1; 
stroke-linecap:round; stroke-linejoin:round;">
<path d="M29040 27910
L29380 27910
" />
<path d="M28850 28030
L29210 28140
L29210 27840
" />
</g>
<g style="fill:#008484; fill-opacity:0.0; 
stroke:#008484; stroke-width:60; stroke-opacity:1; 
stroke-linecap:round; stroke-linejoin:round;">
<path d="M25590 24240
L25590 23640
" />
<path d="M25590 23930
L25940 23930
" />
<path d="M25940 24240
L25940 23640
" />
<path d="M26570 24180
L26540 24210
L26450 24240
L26390 24240
L26310 24210
L26250 24160
L26220 24100
L26190 23980
L26190 23900
L26220 23780
L26250 23730
L26310 23670
L26390 23640
L26450 23640
L26540 23670
L26570 23700
" />
<path d="M26820 24010
L27280 24010
" />
<path d="M27680 23640
L27730 23640
L27790 23670
L27820 23700
L27850 23760
L27880 23870
L27880 24010
L27850 24130
L27820 24180
L27790 24210
L27730 24240
L27680 24240
L27620 24210
L27590 24180
L27560 24130
L27530 24010
L27530 23870
L27560 23760
L27590 23700
L27620 23670
L27680 23640
" />
<path d="M28390 23640
L28280 23640
L28220 23670
L28190 23700
L28130 23780
L28100 23900
L28100 24130
L28130 24180
L28160 24210
L28220 24240
L28330 24240
L28390 24210
L28420 24180
L28450 24130
L28450 23980
L28420 23930
L28390 23900
L28330 23870
L28220 23870
L28160 23900
L28130 23930
L28100 23980
" />
</g>
<g style="fill:#008484; fill-opacity:0.0; 
stroke:#008484; stroke-width:0; stroke-opacity:1; 
stroke-linecap:round; stroke-linejoin:round;">
</g>
<g style="fill:#840000; fill-opacity:0.0; 
stroke:#840000; stroke-width:60; stroke-opacity:1; 
stroke-linecap:round; stroke-linejoin:round;">
<polyline fill="none;"
points="45000,36000
45000,36500
45500,36500
45000,37000
44500,36500
45000,36500
" /> 
</g>
<g style="fill:#008484; fill-opacity:0.0; 
stroke:#008484; stroke-width:60; stroke-opacity:1; 
stroke-linecap:round; stroke-linejoin:round;">
<path d="M44620 37220
L44570 37200
L44500 37200
L44430 37220
L44380 37270
L44360 37320
L44340 37410
L44340 37480
L44360 37580
L44380 37620
L44430 37670
L44500 37700
L44550 37700
L44620 37670
L44640 37650
L44640 37480
L44550 37480
" />
<path d="M44860 37700
L44860 37200
L45140 37700
L45140 37200
" />
<path d="M45380 37700
L45380 37200
L45500 37200
L45570 37220
L45620 37270
L45640 37320
L45660 37410
L45660 37480
L45640 37580
L45620 37620
L45570 37670
L45500 37700
L45380 37700
" />
</g>
<g style="fill:#008400; fill-opacity:0.0; 
stroke:#008400; stroke-width:60; stroke-opacity:1; 
stroke-linecap:round; stroke-linejoin:round;">
<path d="M45000 33000
L45000 36000
" />
</g>
<g style="fill:#008400; fill-opacity:0.0; 
stroke:#008400; stroke-width:0; stroke-opacity:1; 
stroke-linecap:round; stroke-linejoin:round;">
</g>
<g style="fill:#008400; fill-opacity:1.0; 
stroke:#008400; stroke-width:100; stroke-opacity:1; 
stroke-linecap:round; stroke-linejoin:round;">
<circle cx="45000" cy="36000" r="200" /> 
</g>
<g style="fill:#008400; fill-opacity:1.0; 
stroke:#008400; stroke-width:0; stroke-opacity:1; 
stroke-linecap:round; stroke-linejoin:round;">
</g>
<g style="fill:#840000; fill-opacity:0.0; 
stroke:#840000; stroke-width:60; stroke-opacity:1; 
stroke-linecap:round; stroke-linejoin:round;">
<polyline fill="none;"
points="44700,14500
45000,14000
" /> 
<polyline fill="none;"
points="45000,15000
45000,14000
" /> 
<polyline fill="none;"
points="45000,14000
45300,14500
" /> 
</g>
<g style="fill:#008484; fill-opacity:0.0; 
stroke:#008484; stroke-width:60; stroke-opacity:1; 
stroke-linecap:round; stroke-linejoin:round;">
<path d="M44360 13610
L44740 13610
" />
<path d="M44550 13800
L44550 13420
" />
<path d="M45220 13300
L44980 13300
L44960 13530
L44980 13510
L45030 13490
L45150 13490
L45190 13510
L45220 13530
L45240 13580
L45240 13700
L45220 13750
L45190 13770
L45150 13800
L45030 13800
L44980 13770
L44960 13750
" />
<path d="M45390 13300
L45550 13800
L45720 13300
" />
</g>
<g style="fill:#008400; fill-opacity:0.0; 
stroke:#008400; stroke-width:60; stroke-opacity:1; 
stroke-linecap:round; stroke-linejoin:round;">
<path d="M45000 15000
L45000 19000
" />
</g>
<g style="fill:#008400; fill-opacity:0.0; 
stroke:#008400; stroke-width:0; stroke-opacity:1; 
stroke-linecap:round; stroke-linejoin:round;">
</g>
<g style="fill:#008400; fill-opacity:1.0; 
stroke:#008400; stroke-width:100; stroke-opacity:1; 
stroke-linecap:round; stroke-linejoin:round;">
<circle cx="45000" cy="15000" r="200" /> 
</g>
<g style="fill:#008400; fill-opacity:1.0; 
stroke:#008400; stroke-width:60; stroke-opacity:1; 
stroke-linecap:round; stroke-linejoin:round;">
</g>
<g style="fill:#008400; fill-opacity:0.0; 
stroke:#008400; stroke-width:60; stroke-opacity:1; 
stroke-linecap:round; stroke-linejoin:round;">
<path d="M28000 29000
L28000 31000
" />
<path d="M28000 31000
L38000 31000
" />
<path d="M29500 29000
L38000 29000
" />
<path d="M26500 29000
L26500 36000
" />
</g>
<g style="fill:#008400; fill-opacity:0.0; 
stroke:#008400; stroke-width:0; stroke-opacity:1; 
stroke-linecap:round; stroke-linejoin:round;">
</g>
<g style="fill:#840000; fill-opacity:0.0; 
stroke:#840000; stroke-width:60; stroke-opacity:1; 
stroke-linecap:round; stroke-linejoin:round;">
<polyline fill="none;"
points="21200,29500
21500,29000
" /> 
<polyline fill="none;"
points="21500,30000
21500,29000
" /> 
<polyline fill="none;"
points="21500,29000
21800,29500
" /> 
</g>
<g style="fill:#008484; fill-opacity:0.0; 
stroke:#008484; stroke-width:60; stroke-opacity:1; 
stroke-linecap:round; stroke-linejoin:round;">
<path d="M20860 28610
L21240 28610
" />
<path d="M21050 28800
L21050 28420
" />
<path d="M21720 28300
L21480 28300
L21460 28530
L21480 28510
L21530 28490
L21650 28490
L21690 28510
L21720 28530
L21740 28580
L21740 28700
L21720 28750
L21690 28770
L21650 28800
L21530 28800
L21480 28770
L21460 28750
" />
<path d="M21890 28300
L22050 28800
L22220 28300
" />
</g>
<g style="fill:#008484; fill-opacity:0.0; 
stroke:#008484; stroke-width:0; stroke-opacity:1; 
stroke-linecap:round; stroke-linejoin:round;">
</g>
<g style="fill:#840000; fill-opacity:0.0; 
stroke:#840000; stroke-width:60; stroke-opacity:1; 
stroke-linecap:round; stroke-linejoin:round;">
<polyline fill="none;"
points="26500,36000
26500,36500
27000,36500
26500,37000
26000,36500
26500,36500
" /> 
</g>
<g style="fill:#008484; fill-opacity:0.0; 
stroke:#008484; stroke-width:60; stroke-opacity:1; 
stroke-linecap:round; stroke-linejoin:round;">
<path d="M26120 37220
L26070 37200
L26000 37200
L25930 37220
L25880 37270
L25860 37320
L25840 37410
L25840 37480
L25860 37580
L25880 37620
L25930 37670
L26000 37700
L26050 37700
L26120 37670
L26140 37650
L26140 37480
L26050 37480
" />
<path d="M26360 37700
L26360 37200
L26640 37700
L26640 37200
" />
<path d="M26880 37700
L26880 37200
L27000 37200
L27070 37220
L27120 37270
L27140 37320
L27160 37410
L27160 37480
L27140 37580
L27120 37620
L27070 37670
L27000 37700
L26880 37700
" />
</g>
<g style="fill:#008484; fill-opacity:0.0; 
stroke:#008484; stroke-width:0; stroke-opacity:1; 
stroke-linecap:round; stroke-linejoin:round;">
</g>
<g style="fill:#840000; fill-opacity:0.0; 
stroke:#840000; stroke-width:100; stroke-opacity:1; 
stroke-linecap:round; stroke-linejoin:round;">
<rect x="31600" y="33500" width="800" height="2000" rx="0" />
</g>
<g style="fill:#840000; fill-opacity:0.0; 
stroke:#840000; stroke-width:60; stroke-opacity:1; 
stroke-linecap:round; stroke-linejoin:round;">
<path d="M32000 33500
L32000 33000
" />
</g>
<g style="fill:#008484; fill-opacity:0.0; 
stroke:#008484; stroke-width:60; stroke-opacity:1; 
stroke-linecap:round; stroke-linejoin:round;">
<path d="M32000 35500
L32000 36000
" />
</g>
<g style="fill:#008484; fill-opacity:0.0; 
stroke:#008484; stroke-width:60; stroke-opacity:1; 
stroke-linecap:round; stroke-linejoin:round;">
<path d="M33000 34590
L32760 34750
" />
<path d="M33000 34870
L32500 34870
L32500 34680
L32520 34630
L32540 34610
L32590 34590
L32660 34590
L32710 34610
L32730 34630
L32760 34680
L32760 34870
" />
<path d="M33000 34110
L33000 34390
" />
<path d="M33000 34250
L32500 34250
L32570 34300
L32620 34350
L32640 34390
" />
<path d="M31700 35150
L31700 34840
L31890 35010
L31890 34930
L31910 34890
L31930 34860
L31980 34840
L32100 34840
L32150 34860
L32170 34890
L32200 34930
L32200 35080
L32170 35120
L32150 35150
" />
<path d="M31700 34670
L31700 34360
L31890 34530
L31890 34450
L31910 34410
L31930 34380
L31980 34360
L32100 34360
L32150 34380
L32170 34410
L32200 34450
L32200 34600
L32170 34640
L32150 34670
" />
<path d="M31700 34050
L31700 34000
L31720 33950
L31740 33930
L31790 33900
L31890 33880
L32010 33880
L32100 33900
L32150 33930
L32170 33950
L32200 34000
L32200 34050
L32170 34090
L32150 34120
L32100 34140
L32010 34160
L31890 34160
L31790 34140
L31740 34120
L31720 34090
L31700 34050
" />
</g>
<g style="fill:#008484; fill-opacity:0.0; 
stroke:#008484; stroke-width:0; stroke-opacity:1; 
stroke-linecap:round; stroke-linejoin:round;">
</g>
<g style="fill:#840000; fill-opacity:0.0; 
stroke:#840000; stroke-width:60; stroke-opacity:1; 
stroke-linecap:round; stroke-linejoin:round;">
<polyline fill="none;"
points="32500,40000
31500,40000
" /> 
</g>
<g style="fill:#840000; fill-opacity:1.0; 
stroke:#840000; stroke-width:60; stroke-opacity:1; 
stroke-linecap:round; stroke-linejoin:round;">
<polyline style="fill-rule:evenodd;"
points="32500,39000
32000,40000
31500,39000
" /> 
</g>
<g style="fill:#840000; fill-opacity:0.0; 
stroke:#840000; stroke-width:60; stroke-opacity:1; 
stroke-linecap:round; stroke-linejoin:round;">
<polyline fill="none;"
points="31600,40150
31200,40600
31450,40550
" /> 
<polyline fill="none;"
points="31750,40300
31350,40750
31600,40700
" /> 
<path d="M32000 39000
L32000 37500
" />
<path d="M31880 38140
L31880 38360
" />
<path d="M31880 38250
L31480 38250
L31540 38290
L31580 38330
L31600 38360
" />
<path d="M32000 40000
L32000 41500
" />
<path d="M31520 40860
L31500 40840
L31480 40810
L31480 40710
L31500 40670
L31520 40650
L31560 40640
L31600 40640
L31650 40650
L31880 40880
L31880 40640
" />
</g>
<g style="fill:#008484; fill-opacity:0.0; 
stroke:#008484; stroke-width:60; stroke-opacity:1; 
stroke-linecap:round; stroke-linejoin:round;">
<path d="M33260 39840
L32760 39840
L32760 39720
L32780 39650
L32830 39600
L32880 39580
L32970 39560
L33040 39560
L33140 39580
L33180 39600
L33230 39650
L33260 39720
L33260 39840
" />
<path d="M33210 39270
L33230 39250
L33260 39270
L33230 39290
L33210 39270
L33260 39270
" />
<path d="M32780 39360
L32760 39320
L32760 39200
L32780 39150
L32830 39130
L32880 39130
L32920 39150
L32950 39170
L32970 39220
L32990 39250
L33040 39270
L33070 39270
" />
<path d="M31260 39810
L31260 40050
L30760 40050
" />
<path d="M30990 39650
L30990 39480
" />
<path d="M31260 39410
L31260 39650
L30760 39650
L30760 39410
" />
<path d="M31260 39200
L30760 39200
L30760 39080
L30780 39010
L30830 38960
L30880 38940
L30970 38920
L31040 38920
L31140 38940
L31180 38960
L31230 39010
L31260 39080
L31260 39200
" />
</g>
<g style="fill:#008400; fill-opacity:0.0; 
stroke:#008400; stroke-width:60; stroke-opacity:1; 
stroke-linecap:round; stroke-linejoin:round;">
<path d="M38000 25000
L32000 25000
" />
<path d="M32000 36000
L32000 37500
" />
</g>
<g style="fill:#008400; fill-opacity:0.0; 
stroke:#008400; stroke-width:0; stroke-opacity:1; 
stroke-linecap:round; stroke-linejoin:round;">
</g>
<g style="fill:#008400; fill-opacity:1.0; 
stroke:#008400; stroke-width:100; stroke-opacity:1; 
stroke-linecap:round; stroke-linejoin:round;">
<circle cx="32000" cy="36000" r="200" /> 
</g>
<g style="fill:#008400; fill-opacity:1.0; 
stroke:#008400; stroke-width:0; stroke-opacity:1; 
stroke-linecap:round; stroke-linejoin:round;">
</g>
<g style="fill:#840000; fill-opacity:0.0; 
stroke:#840000; stroke-width:60; stroke-opacity:1; 
stroke-linecap:round; stroke-linejoin:round;">
<polyline fill="none;"
points="32000,43500
32000,44000
32500,44000
32000,44500
31500,44000
32000,44000
" /> 
</g>
<g style="fill:#008484; fill-opacity:0.0; 
stroke:#008484; stroke-width:60; stroke-opacity:1; 
stroke-linecap:round; stroke-linejoin:round;">
<path d="M31620 44720
L31570 44700
L31500 44700
L31430 44720
L31380 44770
L31360 44820
L31340 44910
L31340 44980
L31360 45080
L31380 45120
L31430 45170
L31500 45200
L31550 45200
L31620 45170
L31640 45150
L31640 44980
L31550 44980
" />
<path d="M31860 45200
L31860 44700
L32140 45200
L32140 44700
" />
<path d="M32380 45200
L32380 44700
L32500 44700
L32570 44720
L32620 44770
L32640 44820
L32660 44910
L32660 44980
L32640 45080
L32620 45120
L32570 45170
L32500 45200
L32380 45200
" />
</g>
<g style="fill:#008400; fill-opacity:0.0; 
stroke:#008400; stroke-width:60; stroke-opacity:1; 
stroke-linecap:round; stroke-linejoin:round;">
<path d="M32000 41500
L32000 43500
" />
<path d="M32000 25000
L32000 33000
" />
</g>
<g style="fill:#008400; fill-opacity:0.0; 
stroke:#008400; stroke-width:0; stroke-opacity:1; 
stroke-linecap:round; stroke-linejoin:round;">
</g>
<g style="fill:#840000; fill-opacity:0.0; 
stroke:#840000; stroke-width:60; stroke-opacity:1; 
stroke-linecap:round; stroke-linejoin:round;">
<rect x="55800" y="30400" width="3400" height="100" rx="0" />
<polyline fill="none;"
points="57100,30400
57200,30100
57800,30100
57900,30400
" /> 
<circle cx="56200" cy="31000" r="300" /> 
<path d="M55900 31000
L54500 31000
" />
<circle cx="58800" cy="31000" r="300" /> 
<path d="M59100 31000
L60500 31000
" />
</g>
<g style="fill:#008484; fill-opacity:0.0; 
stroke:#008484; stroke-width:60; stroke-opacity:1; 
stroke-linecap:round; stroke-linejoin:round;">
<path d="M58360 30070
L58430 30100
L58550 30100
L58590 30070
L58620 30050
L58640 30000
L58640 29950
L58620 29910
L58590 29880
L58550 29860
L58450 29830
L58400 29810
L58380 29790
L58360 29740
L58360 29690
L58380 29640
L58400 29620
L58450 29600
L58570 29600
L58640 29620
" />
<path d="M58810 29600
L58930 30100
L59030 29740
L59120 30100
L59240 29600
" />
<path d="M59500 30050
L59520 30070
L59500 30100
L59480 30070
L59500 30050
L59500 30100
" />
<path d="M59410 29620
L59450 29600
L59570 29600
L59620 29620
L59640 29670
L59640 29720
L59620 29760
L59600 29790
L59550 29810
L59520 29830
L59500 29880
L59500 29910
" />
<path d="M55880 31970
L55950 32000
L56070 32000
L56110 31970
L56140 31950
L56160 31900
L56160 31850
L56140 31810
L56110 31780
L56070 31760
L55970 31730
L55920 31710
L55900 31690
L55880 31640
L55880 31590
L55900 31540
L55920 31520
L55970 31500
L56090 31500
L56160 31520
" />
<path d="M56330 31500
L56450 32000
L56550 31640
L56640 32000
L56760 31500
" />
<path d="M56830 32040
L57210 32040
" />
<path d="M57330 32000
L57330 31500
L57520 31500
L57570 31520
L57590 31540
L57610 31590
L57610 31660
L57590 31710
L57570 31730
L57520 31760
L57330 31760
" />
<path d="M57830 31500
L57830 31900
L57850 31950
L57880 31970
L57920 32000
L58020 32000
L58070 31970
L58090 31950
L58110 31900
L58110 31500
" />
<path d="M58330 31970
L58400 32000
L58520 32000
L58560 31970
L58590 31950
L58610 31900
L58610 31850
L58590 31810
L58560 31780
L58520 31760
L58420 31730
L58370 31710
L58350 31690
L58330 31640
L58330 31590
L58350 31540
L58370 31520
L58420 31500
L58540 31500
L58610 31520
" />
<path d="M58830 32000
L58830 31500
" />
<path d="M58830 31730
L59110 31730
" />
<path d="M59110 32000
L59110 31500
" />
</g>
<g style="fill:#008484; fill-opacity:0.0; 
stroke:#008484; stroke-width:0; stroke-opacity:1; 
stroke-linecap:round; stroke-linejoin:round;">
</g>
<g style="fill:#840000; fill-opacity:0.0; 
stroke:#840000; stroke-width:60; stroke-opacity:1; 
stroke-linecap:round; stroke-linejoin:round;">
<polyline fill="none;"
points="60500,35500
60500,36000
61000,36000
60500,36500
60000,36000
60500,36000
" /> 
</g>
<g style="fill:#008484; fill-opacity:0.0; 
stroke:#008484; stroke-width:60; stroke-opacity:1; 
stroke-linecap:round; stroke-linejoin:round;">
<path d="M60120 36720
L60070 36700
L60000 36700
L59930 36720
L59880 36770
L59860 36820
L59840 36910
L59840 36980
L59860 37080
L59880 37120
L59930 37170
L60000 37200
L60050 37200
L60120 37170
L60140 37150
L60140 36980
L60050 36980
" />
<path d="M60360 37200
L60360 36700
L60640 37200
L60640 36700
" />
<path d="M60880 37200
L60880 36700
L61000 36700
L61070 36720
L61120 36770
L61140 36820
L61160 36910
L61160 36980
L61140 37080
L61120 37120
L61070 37170
L61000 37200
L60880 37200
" />
</g>
<g style="fill:#008400; fill-opacity:0.0; 
stroke:#008400; stroke-width:60; stroke-opacity:1; 
stroke-linecap:round; stroke-linejoin:round;">
<path d="M52000 31000
L54500 31000
" />
<path d="M60500 31000
L60500 35500
" />
</g>
<g style="fill:#008400; fill-opacity:0.0; 
stroke:#008400; stroke-width:0; stroke-opacity:1; 
stroke-linecap:round; stroke-linejoin:round;">
</g>
<g style="fill:#840000; fill-opacity:0.0; 
stroke:#840000; stroke-width:60; stroke-opacity:1; 
stroke-linecap:round; stroke-linejoin:round;">
<rect x="59500" y="13000" width="9000" height="6500" rx="0" />
<path d="M61000 19500
L61000 21500
" />
</g>
<g style="fill:#008484; fill-opacity:0.0; 
stroke:#008484; stroke-width:60; stroke-opacity:1; 
stroke-linecap:round; stroke-linejoin:round;">
<path d="M61230 18980
L60730 18980
L61080 18810
L60730 18650
L61230 18650
" />
<path d="M61180 18130
L61200 18150
L61230 18220
L61230 18270
L61200 18340
L61150 18390
L61110 18410
L61010 18430
L60940 18430
L60850 18410
L60800 18390
L60750 18340
L60730 18270
L60730 18220
L60750 18150
L60770 18130
" />
<path d="M61230 17670
L61230 17910
L60730 17910
" />
<path d="M61230 17230
L60990 17390
" />
<path d="M61230 17510
L60730 17510
L60730 17320
L60750 17270
L60770 17250
L60820 17230
L60890 17230
L60940 17250
L60960 17270
L60990 17320
L60990 17510
" />
</g>
<g style="fill:#840000; fill-opacity:0.0; 
stroke:#840000; stroke-width:60; stroke-opacity:1; 
stroke-linecap:round; stroke-linejoin:round;">
<path d="M60880 20360
L60880 20640
" />
<path d="M60880 20500
L60380 20500
L60450 20550
L60500 20600
L60520 20640
" />
<path d="M62500 19500
L62500 21500
" />
</g>
<g style="fill:#008484; fill-opacity:0.0; 
stroke:#008484; stroke-width:60; stroke-opacity:1; 
stroke-linecap:round; stroke-linejoin:round;">
<path d="M62230 19050
L62730 18890
L62230 18720
" />
<path d="M62730 18550
L62230 18550
L62230 18430
L62250 18360
L62300 18310
L62350 18290
L62440 18270
L62510 18270
L62610 18290
L62650 18310
L62700 18360
L62730 18430
L62730 18550
" />
<path d="M62730 18050
L62230 18050
L62230 17930
L62250 17860
L62300 17810
L62350 17790
L62440 17770
L62510 17770
L62610 17790
L62650 17810
L62700 17860
L62730 17930
L62730 18050
" />
</g>
<g style="fill:#840000; fill-opacity:0.0; 
stroke:#840000; stroke-width:60; stroke-opacity:1; 
stroke-linecap:round; stroke-linejoin:round;">
<path d="M61920 20640
L61900 20620
L61880 20570
L61880 20450
L61900 20410
L61920 20380
L61970 20360
L62020 20360
L62090 20380
L62380 20670
L62380 20360
" />
<path d="M64000 19500
L64000 21500
" />
</g>
<g style="fill:#008484; fill-opacity:0.0; 
stroke:#008484; stroke-width:60; stroke-opacity:1; 
stroke-linecap:round; stroke-linejoin:round;">
<path d="M63730 19050
L64230 18890
L63730 18720
" />
<path d="M64200 18570
L64230 18500
L64230 18380
L64200 18340
L64180 18310
L64130 18290
L64080 18290
L64040 18310
L64010 18340
L63990 18380
L63960 18480
L63940 18530
L63920 18550
L63870 18570
L63820 18570
L63770 18550
L63750 18530
L63730 18480
L63730 18360
L63750 18290
" />
<path d="M64200 18090
L64230 18020
L64230 17900
L64200 17860
L64180 17830
L64130 17810
L64080 17810
L64040 17830
L64010 17860
L63990 17900
L63960 18000
L63940 18050
L63920 18070
L63870 18090
L63820 18090
L63770 18070
L63750 18050
L63730 18000
L63730 17880
L63750 17810
" />
</g>
<g style="fill:#840000; fill-opacity:0.0; 
stroke:#840000; stroke-width:60; stroke-opacity:1; 
stroke-linecap:round; stroke-linejoin:round;">
<path d="M63380 20670
L63380 20360
L63570 20530
L63570 20450
L63590 20410
L63610 20380
L63660 20360
L63780 20360
L63830 20380
L63850 20410
L63880 20450
L63880 20600
L63850 20640
L63830 20670
" />
<path d="M65500 19500
L65500 21500
" />
</g>
<g style="fill:#008484; fill-opacity:0.0; 
stroke:#008484; stroke-width:60; stroke-opacity:1; 
stroke-linecap:round; stroke-linejoin:round;">
<path d="M65730 18980
L65230 18980
" />
<path d="M65680 18460
L65700 18480
L65730 18550
L65730 18600
L65700 18670
L65650 18720
L65610 18740
L65510 18760
L65440 18760
L65350 18740
L65300 18720
L65250 18670
L65230 18600
L65230 18550
L65250 18480
L65270 18460
" />
<path d="M65700 18260
L65730 18190
L65730 18070
L65700 18030
L65680 18000
L65630 17980
L65580 17980
L65540 18000
L65510 18030
L65490 18070
L65460 18170
L65440 18220
L65420 18240
L65370 18260
L65320 18260
L65270 18240
L65250 18220
L65230 18170
L65230 18050
L65250 17980
" />
<path d="M65730 17760
L65230 17760
L65230 17570
L65250 17520
L65270 17500
L65320 17480
L65390 17480
L65440 17500
L65460 17520
L65490 17570
L65490 17760
" />
<path d="M65730 17260
L65230 17260
L65230 17140
L65250 17070
L65300 17020
L65350 17000
L65440 16980
L65510 16980
L65610 17000
L65650 17020
L65700 17070
L65730 17140
L65730 17260
" />
<path d="M65580 16780
L65580 16550
" />
<path d="M65730 16830
L65230 16670
L65730 16500
" />
<path d="M65230 16400
L65230 16120
" />
<path d="M65730 16260
L65230 16260
" />
</g>
<g style="fill:#840000; fill-opacity:0.0; 
stroke:#840000; stroke-width:60; stroke-opacity:1; 
stroke-linecap:round; stroke-linejoin:round;">
<path d="M65040 20410
L65380 20410
" />
<path d="M64850 20530
L65210 20640
L65210 20340
" />
<path d="M67000 19500
L67000 21500
" />
</g>
<g style="fill:#008484; fill-opacity:0.0; 
stroke:#008484; stroke-width:60; stroke-opacity:1; 
stroke-linecap:round; stroke-linejoin:round;">
<path d="M67230 18980
L66730 18980
" />
<path d="M67180 18460
L67200 18480
L67230 18550
L67230 18600
L67200 18670
L67150 18720
L67110 18740
L67010 18760
L66940 18760
L66850 18740
L66800 18720
L66750 18670
L66730 18600
L66730 18550
L66750 18480
L66770 18460
" />
<path d="M67200 18260
L67230 18190
L67230 18070
L67200 18030
L67180 18000
L67130 17980
L67080 17980
L67040 18000
L67010 18030
L66990 18070
L66960 18170
L66940 18220
L66920 18240
L66870 18260
L66820 18260
L66770 18240
L66750 18220
L66730 18170
L66730 18050
L66750 17980
" />
<path d="M67230 17760
L66730 17760
L66730 17570
L66750 17520
L66770 17500
L66820 17480
L66890 17480
L66940 17500
L66960 17520
L66990 17570
L66990 17760
" />
<path d="M67180 16980
L67200 17000
L67230 17070
L67230 17120
L67200 17190
L67150 17240
L67110 17260
L67010 17280
L66940 17280
L66850 17260
L66800 17240
L66750 17190
L66730 17120
L66730 17070
L66750 17000
L66770 16980
" />
<path d="M67230 16520
L67230 16760
L66730 16760
" />
<path d="M67230 16360
L66730 16360
" />
<path d="M67230 16080
L66940 16290
" />
<path d="M66730 16080
L67010 16360
" />
</g>
<g style="fill:#840000; fill-opacity:0.0; 
stroke:#840000; stroke-width:60; stroke-opacity:1; 
stroke-linecap:round; stroke-linejoin:round;">
<path d="M66380 20380
L66380 20620
L66610 20640
L66590 20620
L66570 20570
L66570 20450
L66590 20410
L66610 20380
L66660 20360
L66780 20360
L66830 20380
L66850 20410
L66880 20450
L66880 20570
L66850 20620
L66830 20640
" />
</g>
<g style="fill:#008484; fill-opacity:0.0; 
stroke:#008484; stroke-width:60; stroke-opacity:1; 
stroke-linecap:round; stroke-linejoin:round;">
<path d="M62720 14740
L62720 14140
L62950 14140
L63010 14170
L63040 14200
L63070 14260
L63070 14340
L63040 14400
L63010 14430
L62950 14460
L62720 14460
" />
<path d="M63320 14740
L63320 14140
" />
<path d="M63960 14680
L63930 14710
L63840 14740
L63780 14740
L63700 14710
L63640 14660
L63610 14600
L63580 14480
L63580 14400
L63610 14280
L63640 14230
L63700 14170
L63780 14140
L63840 14140
L63930 14170
L63960 14200
" />
<path d="M64210 14740
L64210 14140
" />
<path d="M64560 14740
L64300 14400
" />
<path d="M64560 14140
L64210 14480
" />
<path d="M64810 14740
L64810 14140
" />
<path d="M65020 14140
L65360 14140
" />
<path d="M65190 14740
L65190 14140
" />
</g>
<g style="fill:#008400; fill-opacity:0.0; 
stroke:#008400; stroke-width:60; stroke-opacity:1; 
stroke-linecap:round; stroke-linejoin:round;">
<path d="M61000 21500
L61000 27000
" />
<path d="M61000 27000
L52000 27000
" />
<path d="M65500 21500
L65500 23500
" />
<path d="M57000 21000
L57000 23500
" />
<path d="M57000 21000
L52000 21000
" />
<path d="M67000 21500
L67000 24500
" />
<path d="M56000 23000
L56000 24500
" />
<path d="M56000 23000
L52000 23000
" />
<path d="M62500 21500
L62500 22500
" />
<path d="M62500 22500
L58000 22500
" />
<path d="M58000 22500
L58000 15000
" />
<path d="M57000 23500
L65500 23500
" />
<path d="M56000 24500
L67000 24500
" />
<path d="M58000 15000
L45000 15000
" />
</g>
<g style="fill:#008400; fill-opacity:0.0; 
stroke:#008400; stroke-width:0; stroke-opacity:1; 
stroke-linecap:round; stroke-linejoin:round;">
</g>
<g style="fill:#840000; fill-opacity:0.0; 
stroke:#840000; stroke-width:60; stroke-opacity:1; 
stroke-linecap:round; stroke-linejoin:round;">
<polyline fill="none;"
points="64000,35500
64000,36000
64500,36000
64000,36500
63500,36000
64000,36000
" /> 
</g>
<g style="fill:#008484; fill-opacity:0.0; 
stroke:#008484; stroke-width:60; stroke-opacity:1; 
stroke-linecap:round; stroke-linejoin:round;">
<path d="M63620 36720
L63570 36700
L63500 36700
L63430 36720
L63380 36770
L63360 36820
L63340 36910
L63340 36980
L63360 37080
L63380 37120
L63430 37170
L63500 37200
L63550 37200
L63620 37170
L63640 37150
L63640 36980
L63550 36980
" />
<path d="M63860 37200
L63860 36700
L64140 37200
L64140 36700
" />
<path d="M64380 37200
L64380 36700
L64500 36700
L64570 36720
L64620 36770
L64640 36820
L64660 36910
L64660 36980
L64640 37080
L64620 37120
L64570 37170
L64500 37200
L64380 37200
" />
</g>
<g style="fill:#008400; fill-opacity:0.0; 
stroke:#008400; stroke-width:60; stroke-opacity:1; 
stroke-linecap:round; stroke-linejoin:round;">
<path d="M64000 21500
L64000 35500
" />
</g>
<g style="fill:#008400; fill-opacity:0.0; 
stroke:#008400; stroke-width:0; stroke-opacity:1; 
stroke-linecap:round; stroke-linejoin:round;">
</g>
<g style="fill:#840000; fill-opacity:0.0; 
stroke:#840000; stroke-width:60; stroke-opacity:1; 
stroke-linecap:round; stroke-linejoin:round;">
<rect x="31000" y="13500" width="5000" height="4500" rx="0" />
<path d="M32000 17500
L32000 19500
" />
</g>
<g style="fill:#008484; fill-opacity:0.0; 
stroke:#008484; stroke-width:60; stroke-opacity:1; 
stroke-linecap:round; stroke-linejoin:round;">
<path d="M31730 17050
L32230 16890
L31730 16720
" />
<path d="M32200 16570
L32230 16530
L32230 16430
L32200 16380
L32150 16360
L32130 16360
L32080 16380
L32060 16430
L32060 16500
L32040 16550
L31990 16570
L31960 16570
L31920 16550
L31890 16500
L31890 16430
L31920 16380
" />
</g>
<g style="fill:#840000; fill-opacity:0.0; 
stroke:#840000; stroke-width:60; stroke-opacity:1; 
stroke-linecap:round; stroke-linejoin:round;">
<path d="M31880 18360
L31880 18640
" />
<path d="M31880 18500
L31380 18500
L31450 18550
L31500 18600
L31520 18640
" />
<path d="M33500 17500
L33500 19500
" />
</g>
<g style="fill:#008484; fill-opacity:0.0; 
stroke:#008484; stroke-width:60; stroke-opacity:1; 
stroke-linecap:round; stroke-linejoin:round;">
<path d="M33230 17050
L33730 16890
L33230 16720
" />
<path d="M33730 16480
L33700 16530
L33680 16550
L33630 16570
L33490 16570
L33440 16550
L33420 16530
L33390 16480
L33390 16410
L33420 16360
L33440 16340
L33490 16310
L33630 16310
L33680 16340
L33700 16360
L33730 16410
L33730 16480
" />
<path d="M33390 15890
L33730 15890
" />
<path d="M33390 16100
L33650 16100
L33700 16080
L33730 16030
L33730 15960
L33700 15910
L33680 15890
" />
<path d="M33390 15720
L33390 15530
" />
<path d="M33230 15650
L33650 15650
L33700 15630
L33730 15580
L33730 15530
" />
</g>
<g style="fill:#840000; fill-opacity:0.0; 
stroke:#840000; stroke-width:60; stroke-opacity:1; 
stroke-linecap:round; stroke-linejoin:round;">
<path d="M32920 18640
L32900 18620
L32880 18570
L32880 18450
L32900 18410
L32920 18380
L32970 18360
L33020 18360
L33090 18380
L33380 18670
L33380 18360
" />
<path d="M35000 17500
L35000 19500
" />
</g>
<g style="fill:#008484; fill-opacity:0.0; 
stroke:#008484; stroke-width:60; stroke-opacity:1; 
stroke-linecap:round; stroke-linejoin:round;">
<path d="M34750 16720
L34730 16770
L34730 16840
L34750 16910
L34800 16960
L34850 16980
L34940 17000
L35010 17000
L35110 16980
L35150 16960
L35200 16910
L35230 16840
L35230 16790
L35200 16720
L35180 16700
L35010 16700
L35010 16790
" />
<path d="M35230 16480
L34730 16480
L35230 16200
L34730 16200
" />
<path d="M35230 15960
L34730 15960
L34730 15840
L34750 15770
L34800 15720
L34850 15700
L34940 15680
L35010 15680
L35110 15700
L35150 15720
L35200 15770
L35230 15840
L35230 15960
" />
</g>
<g style="fill:#840000; fill-opacity:0.0; 
stroke:#840000; stroke-width:60; stroke-opacity:1; 
stroke-linecap:round; stroke-linejoin:round;">
<path d="M34380 18670
L34380 18360
L34570 18530
L34570 18450
L34590 18410
L34610 18380
L34660 18360
L34780 18360
L34830 18380
L34850 18410
L34880 18450
L34880 18600
L34850 18640
L34830 18670
" />
</g>
<g style="fill:#008484; fill-opacity:0.0; 
stroke:#008484; stroke-width:60; stroke-opacity:1; 
stroke-linecap:round; stroke-linejoin:round;">
<path d="M32120 14640
L32460 14640
" />
<path d="M32290 15240
L32290 14640
" />
<path d="M32660 15240
L32660 14640
L32860 15070
L33060 14640
L33060 15240
" />
<path d="M33350 15240
L33350 14640
L33580 14640
L33640 14670
L33670 14700
L33700 14760
L33700 14840
L33670 14900
L33640 14930
L33580 14960
L33350 14960
" />
<path d="M33900 14640
L34270 14640
L34070 14870
L34150 14870
L34210 14900
L34240 14930
L34270 14980
L34270 15130
L34240 15180
L34210 15210
L34150 15240
L33980 15240
L33920 15210
L33900 15180
" />
<path d="M34780 14640
L34670 14640
L34610 14670
L34580 14700
L34520 14780
L34490 14900
L34490 15130
L34520 15180
L34550 15210
L34610 15240
L34720 15240
L34780 15210
L34810 15180
L34840 15130
L34840 14980
L34810 14930
L34780 14900
L34720 14870
L34610 14870
L34550 14900
L34520 14930
L34490 14980
" />
</g>
<g style="fill:#008400; fill-opacity:0.0; 
stroke:#008400; stroke-width:60; stroke-opacity:1; 
stroke-linecap:round; stroke-linejoin:round;">
<path d="M38000 27000
L33500 27000
" />
<path d="M33500 27000
L33500 19500
" />
</g>
<g style="fill:#008400; fill-opacity:0.0; 
stroke:#008400; stroke-width:0; stroke-opacity:1; 
stroke-linecap:round; stroke-linejoin:round;">
</g>
<g style="fill:#840000; fill-opacity:0.0; 
stroke:#840000; stroke-width:60; stroke-opacity:1; 
stroke-linecap:round; stroke-linejoin:round;">
<polyline fill="none;"
points="35000,21500
35000,22000
35500,22000
35000,22500
34500,22000
35000,22000
" /> 
</g>
<g style="fill:#008484; fill-opacity:0.0; 
stroke:#008484; stroke-width:60; stroke-opacity:1; 
stroke-linecap:round; stroke-linejoin:round;">
<path d="M34620 22720
L34570 22700
L34500 22700
L34430 22720
L34380 22770
L34360 22820
L34340 22910
L34340 22980
L34360 23080
L34380 23120
L34430 23170
L34500 23200
L34550 23200
L34620 23170
L34640 23150
L34640 22980
L34550 22980
" />
<path d="M34860 23200
L34860 22700
L35140 23200
L35140 22700
" />
<path d="M35380 23200
L35380 22700
L35500 22700
L35570 22720
L35620 22770
L35640 22820
L35660 22910
L35660 22980
L35640 23080
L35620 23120
L35570 23170
L35500 23200
L35380 23200
" />
</g>
<g style="fill:#008484; fill-opacity:0.0; 
stroke:#008484; stroke-width:0; stroke-opacity:1; 
stroke-linecap:round; stroke-linejoin:round;">
</g>
<g style="fill:#840000; fill-opacity:0.0; 
stroke:#840000; stroke-width:60; stroke-opacity:1; 
stroke-linecap:round; stroke-linejoin:round;">
<polyline fill="none;"
points="27700,14500
28000,14000
" /> 
<polyline fill="none;"
points="28000,15000
28000,14000
" /> 
<polyline fill="none;"
points="28000,14000
28300,14500
" /> 
</g>
<g style="fill:#008484; fill-opacity:0.0; 
stroke:#008484; stroke-width:60; stroke-opacity:1; 
stroke-linecap:round; stroke-linejoin:round;">
<path d="M27360 13610
L27740 13610
" />
<path d="M27550 13800
L27550 13420
" />
<path d="M28220 13300
L27980 13300
L27960 13530
L27980 13510
L28030 13490
L28150 13490
L28190 13510
L28220 13530
L28240 13580
L28240 13700
L28220 13750
L28190 13770
L28150 13800
L28030 13800
L27980 13770
L27960 13750
" />
<path d="M28390 13300
L28550 13800
L28720 13300
" />
</g>
<g style="fill:#008400; fill-opacity:0.0; 
stroke:#008400; stroke-width:60; stroke-opacity:1; 
stroke-linecap:round; stroke-linejoin:round;">
<path d="M35000 19500
L35000 21500
" />
<path d="M32000 19500
L28000 19500
" />
<path d="M28000 19500
L28000 15000
" />
<path d="M25000 29000
L25000 31000
" />
<path d="M25000 31000
L21500 31000
" />
<path d="M21500 31000
L21500 30000
" />
</g> 
</svg>
